<svg id="Layer_1" data-name="Layer 1" xmlns="http://www.w3.org/2000/svg" viewBox="0 0 1080 1080"><defs><style>.cls-1{fill:#898989;}</style></defs><polygon class="cls-1" points="481.13 540 59.84 296.77 59.84 783.23 481.13 540"/><rect class="cls-1" x="520.73" y="136.06" width="62.66" height="62.66"/><rect class="cls-1" x="520.73" y="210.23" width="62.66" height="62.66"/><rect class="cls-1" x="520.73" y="284.39" width="62.66" height="62.66"/><rect class="cls-1" x="520.73" y="358.56" width="62.66" height="62.66"/><rect class="cls-1" x="520.73" y="432.72" width="62.66" height="62.66"/><rect class="cls-1" x="520.73" y="506.89" width="62.66" height="62.66"/><rect class="cls-1" x="520.73" y="581.05" width="62.66" height="62.66"/><rect class="cls-1" x="520.73" y="655.22" width="62.66" height="62.66"/><rect class="cls-1" x="520.73" y="732.95" width="62.66" height="62.66"/><rect class="cls-1" x="520.73" y="807.11" width="62.66" height="62.66"/><rect class="cls-1" x="520.73" y="881.28" width="62.66" height="62.66"/><path class="cls-1" d="M623,540l421.29,243.23V296.77Zm405,217.53L651.23,540,1028,322.47Z"/></svg>