<svg id="Layer_1" data-name="Layer 1" xmlns="http://www.w3.org/2000/svg" viewBox="0 0 1080 1080"><defs><style>.cls-1{fill:#d5d5d5;}.cls-2{fill:#ccc6d9;fill-rule:evenodd;}.cls-3{fill:#e1dceb;}</style></defs><path class="cls-1" d="M185.57,177.29H351.84a20.27,20.27,0,0,1,20.27,20.26h0a20.27,20.27,0,0,1-20.27,20.27H185.57a20.26,20.26,0,0,1-20.27-20.27h0A20.26,20.26,0,0,1,185.57,177.29Z"/><path class="cls-1" d="M185.57,292.28H558.65a20.27,20.27,0,0,1,20.27,20.26h0a20.27,20.27,0,0,1-20.27,20.27H185.57a20.26,20.26,0,0,1-20.27-20.27h0A20.26,20.26,0,0,1,185.57,292.28Z"/><path class="cls-1" d="M185.57,407.27H558.65a20.27,20.27,0,0,1,20.27,20.26h0a20.27,20.27,0,0,1-20.27,20.27H185.57a20.26,20.26,0,0,1-20.27-20.27h0A20.26,20.26,0,0,1,185.57,407.27Z"/><path class="cls-1" d="M185.57,522.26H558.65a20.27,20.27,0,0,1,20.27,20.26h0a20.27,20.27,0,0,1-20.27,20.27H185.57a20.26,20.26,0,0,1-20.27-20.27h0A20.26,20.26,0,0,1,185.57,522.26Z"/><path class="cls-1" d="M185.57,637.25H558.65a20.26,20.26,0,0,1,20.27,20.24v0h0a20.26,20.26,0,0,1-20.25,20.27H185.57a20.25,20.25,0,0,1-20.27-20.25v0h0a20.26,20.26,0,0,1,20.26-20.26Z"/><path class="cls-2" d="M517.32,764.67a257.33,257.33,0,0,0,143.93-43.74l168.34,160.7,61-70.83L728.21,655.74a257.44,257.44,0,0,0,47.64-149.59c0-142.76-115.75-258.48-258.49-258.48S258.88,363.41,258.88,506.15,374.56,764.67,517.32,764.67ZM737.83,506.19c0,120.87-98,218.84-218.9,218.82S300.08,627,300.1,506.11,398.1,287.29,519,287.29s218.87,98,218.87,218.86h0Z"/><path class="cls-1" d="M557.92,505.89l54.55-54.34a28.28,28.28,0,0,0-.56-39.6,28.72,28.72,0,0,0-39.85-.57l-54.68,54.35-54.54-54.3a28.74,28.74,0,0,0-31.53-6.81,28.29,28.29,0,0,0-8.88,47l54.64,54.34-54.64,54.35a28.3,28.3,0,0,0-1.23,40c.21.22.42.45.64.66a28.66,28.66,0,0,0,41-.51l54.66-54.39,54.68,54.34a28.71,28.71,0,0,0,39.14-1.27,28.28,28.28,0,0,0,1.2-38.9Z"/><path class="cls-3" d="M829.58,881.63l61-70.83,9.2,8.79a49.58,49.58,0,0,1,3.12,67.51,44.54,44.54,0,0,1-31.43,15.56,44,44,0,0,1-32.68-12.28l-9.21-8.77Z"/></svg>