<svg xmlns="http://www.w3.org/2000/svg" xmlns:xlink="http://www.w3.org/1999/xlink" viewBox="0 0 40 40"><defs><style>.cls-1{isolation:isolate;}.cls-2{fill:url(#linear-gradient);}.cls-3,.cls-6{mix-blend-mode:color-dodge;}.cls-3{fill:url(#radial-gradient);}.cls-4{fill:#2d8566;}.cls-5{fill:url(#linear-gradient-2);}.cls-6{fill:url(#radial-gradient-2);}.cls-14,.cls-16,.cls-7{mix-blend-mode:screen;}.cls-7{fill:url(#radial-gradient-3);}.cls-8{fill:#2dd7a2;}.cls-9{opacity:0.02;}.cls-10{opacity:0.05;}.cls-11{opacity:0.08;}.cls-12{opacity:0.12;}.cls-13{opacity:0.15;}.cls-15{fill:#ff63ce;}.cls-16{fill:url(#radial-gradient-4);}</style><linearGradient id="linear-gradient" x1="5.56" y1="18.9" x2="38.33" y2="18.9" gradientUnits="userSpaceOnUse"><stop offset="0" stop-color="#b82cb4"/><stop offset="0.06" stop-color="#de4ac2"/><stop offset="0.07" stop-color="#e953c6"/><stop offset="0.13" stop-color="#c436b8"/><stop offset="0.29" stop-color="#b82cb4"/><stop offset="0.67" stop-color="#d644bf"/><stop offset="1" stop-color="#ec55c7"/></linearGradient><radialGradient id="radial-gradient" cx="30.04" cy="8.27" r="20.42" gradientUnits="userSpaceOnUse"><stop offset="0" stop-color="#551841"/><stop offset="0.05" stop-color="#4a1539"/><stop offset="0.18" stop-color="#2f0d24"/><stop offset="0.33" stop-color="#1a0714"/><stop offset="0.5" stop-color="#0b0309"/><stop offset="0.7" stop-color="#030102"/><stop offset="1"/></radialGradient><linearGradient id="linear-gradient-2" x1="5.58" y1="19.13" x2="38.35" y2="19.13" xlink:href="#linear-gradient"/><radialGradient id="radial-gradient-2" cx="30.5" cy="21.44" r="14.01" xlink:href="#radial-gradient"/><radialGradient id="radial-gradient-3" cx="30.5" cy="21.67" r="12.96" xlink:href="#radial-gradient"/><radialGradient id="radial-gradient-4" cx="-27509.82" cy="10.39" r="6.81" gradientTransform="translate(2948.81 -0.09) scale(0.11 1)" gradientUnits="userSpaceOnUse"><stop offset="0" stop-color="#ff63ce"/><stop offset="0.02" stop-color="#f760c8"/><stop offset="0.13" stop-color="#be4a99"/><stop offset="0.25" stop-color="#8b3670"/><stop offset="0.37" stop-color="#60254e"/><stop offset="0.49" stop-color="#3e1832"/><stop offset="0.62" stop-color="#230d1c"/><stop offset="0.74" stop-color="#0f060c"/><stop offset="0.87" stop-color="#040103"/><stop offset="1"/></radialGradient></defs><g class="cls-1"><g id="Layer_1" data-name="Layer 1"><path class="cls-2" d="M10.18.89A4.28,4.28,0,0,0,6.3.89a1.16,1.16,0,0,0-.08,2.17l4,21L33,37.24a1,1,0,0,0,1.49-.86V16.3a2.52,2.52,0,0,0-1.26-2.18Z"/><path class="cls-3" d="M11.86,23.12l-.63-.38-.14-.09V2.59L32.94,15.1a1.21,1.21,0,0,1,.6,1V35.68Z"/><path class="cls-4" d="M10.18.89A4.28,4.28,0,0,0,6.3.89a1.16,1.16,0,0,0-.08,2.17l4,21,23,13.36a1,1,0,0,0,1.49-.86V16.46a2.54,2.54,0,0,0-1.27-2.19Z"/><path class="cls-5" d="M10.2,1.13a4.27,4.27,0,0,0-3.89,0A1.17,1.17,0,0,0,6.23,3.3l4,21L33,37.48a1,1,0,0,0,1.5-.86V16.53a2.53,2.53,0,0,0-1.27-2.18Z"/><path class="cls-6" d="M6.31,10s-1,1.55-.08,2.18L10.2,24,33,37.24a1,1,0,0,0,1.5-.86v-11Z"/><path class="cls-7" d="M6.31,11.16s-1,1.55-.08,2.17l4,9.67L33,36.21a1,1,0,0,0,1.5-.86V26.57Z"/><path class="cls-8" d="M10.2,1.13a4.27,4.27,0,0,0-3.89,0A1.17,1.17,0,0,0,6.23,3.3l4,21L33,37.48a1,1,0,0,0,1.5-.86V16.53a2.53,2.53,0,0,0-1.27-2.18Z"/><path class="cls-9" d="M33.48,37.09a.74.74,0,0,1-.36-.09L10.57,23.93a.32.32,0,0,1-.12-.44.33.33,0,0,1,.45-.12L33.45,36.43h0l0,0s0,0,0,0V16.3a1.58,1.58,0,0,0-.79-1.37L9.71,1.71a3,3,0,0,0-1.48-.34,3.06,3.06,0,0,0-1.46.33c-.25.15-.32.27-.33.3a.33.33,0,1,1-.65,0,1.11,1.11,0,0,1,.65-.85A3.7,3.7,0,0,1,8.23.71,3.75,3.75,0,0,1,10,1.14l23,13.22a2.24,2.24,0,0,1,1.13,1.94V36.38a.69.69,0,0,1-.22.51A.7.7,0,0,1,33.48,37.09Z"/><path class="cls-10" d="M33.48,37a.63.63,0,0,1-.33-.09L10.6,23.89a.28.28,0,0,1-.1-.38.27.27,0,0,1,.37-.1L33.42,36.48a.11.11,0,0,0,.11,0,.1.1,0,0,0,0-.06s0-5,0-5S33.5,16,33.36,15.91c0-.42-6-4.12-6.35-4.33-.1-.06-17.52-10-17.67-10a3.51,3.51,0,0,0-1.5-.17,2.75,2.75,0,0,0-1.21.37A1.37,1.37,0,0,0,6.36,2a.24.24,0,0,1-.25.24A.28.28,0,0,1,5.84,2a1.05,1.05,0,0,1,.63-.8A3.69,3.69,0,0,1,8.23.77,3.63,3.63,0,0,1,10,1.19L33,14.41a2.19,2.19,0,0,1,1.09,1.89V36.38a.6.6,0,0,1-.2.47A.65.65,0,0,1,33.48,37Z"/><path class="cls-11" d="M33.48,37a.53.53,0,0,1-.3-.09L10.63,23.84a.22.22,0,0,1,.21-.38L33.4,36.53a.15.15,0,0,0,.17,0,.15.15,0,0,0,.06-.11s0-10,0-10.06c0-.32-.17-10.66-.45-10.82,0-.28-11.66-7.15-11.91-7.29S9.27,1.43,9,1.43a3.76,3.76,0,0,0-1.53,0,2.23,2.23,0,0,0-.94.41c-.13.1-.19.19-.22.2a.17.17,0,0,1-.17.16A.23.23,0,0,1,5.9,2a1,1,0,0,1,.59-.75A3.61,3.61,0,0,1,8.23.82,3.58,3.58,0,0,1,10,1.24L33,14.46a2.13,2.13,0,0,1,1.07,1.84V36.38a.62.62,0,0,1-.18.44A.68.68,0,0,1,33.48,37Z"/><path class="cls-12" d="M33.48,36.93a.5.5,0,0,1-.27-.07L10.65,23.79a.16.16,0,0,1-.06-.22.17.17,0,0,1,.23-.06L33.37,36.57a.19.19,0,0,0,.25,0,.21.21,0,0,0,.07-.15V21.32c0-.48-.26-6-.68-6.19C33,15,15.67,4.94,15.55,4.87c-.3-.17-6.5-3.58-7-3.58a3.44,3.44,0,0,0-1.55.19,1.55,1.55,0,0,0-.69.44c-.06.08-.12.15-.16.15a.08.08,0,0,1-.09.08A.17.17,0,0,1,6,2a1,1,0,0,1,.57-.7A3.49,3.49,0,0,1,8.23.87,3.57,3.57,0,0,1,10,1.28L33,14.51a2.06,2.06,0,0,1,1,1.79V36.38a.59.59,0,0,1-.16.4A.58.58,0,0,1,33.48,36.93Z"/><path class="cls-13" d="M33.48,36.88a.55.55,0,0,1-.25-.07L10.68,23.75a.11.11,0,0,1,0-.15.1.1,0,0,1,.15,0L33.34,36.62a.29.29,0,0,0,.33,0,.28.28,0,0,0,.08-.2V16.3a1.82,1.82,0,0,0-.9-1.56L9.82,1.52a3.25,3.25,0,0,0-1.59-.37,3.25,3.25,0,0,0-1.57.36c-.26.15-.43.34-.43.48a.12.12,0,0,1-.11.11h0A.1.1,0,0,1,6,2c0-.23.2-.47.54-.67A3.48,3.48,0,0,1,8.23.93a3.56,3.56,0,0,1,1.7.4L33,14.55a2,2,0,0,1,1,1.75V36.38a.49.49,0,0,1-.15.36A.49.49,0,0,1,33.48,36.88Z"/><path class="cls-4" d="M33.48,36.88h0a.44.44,0,0,1-.24-.07L33,36.69a.11.11,0,0,1,0-.15.12.12,0,0,1,.16,0l.21.12a.2.2,0,0,0,.13,0,.12.12,0,0,1,.12.11c0,.07,0,.12-.09.12Zm.36-.26h0a.11.11,0,0,1-.08-.14.28.28,0,0,0,0-.09V36a.12.12,0,0,1,.12-.11A.11.11,0,0,1,34,36v.34a.41.41,0,0,1,0,.16A.11.11,0,0,1,33.84,36.62Zm-1.16-.14-.06,0-.39-.23a.12.12,0,0,1,0-.16.13.13,0,0,1,.16,0l.4.23a.13.13,0,0,1,0,.16A.11.11,0,0,1,32.68,36.48ZM31.89,36l-.06,0-.4-.23a.11.11,0,0,1,.11-.2l.4.23a.12.12,0,0,1-.05.22Zm2-.32a.12.12,0,0,1-.12-.12v-.46a.12.12,0,0,1,.12-.11.11.11,0,0,1,.11.11v.46A.11.11,0,0,1,33.86,35.7Zm-2.77-.14-.06,0-.4-.23a.12.12,0,0,1,.12-.2l.4.23a.12.12,0,0,1,0,.16A.13.13,0,0,1,31.09,35.56Zm-.8-.47h-.06l-.39-.23a.11.11,0,1,1,.11-.2l.4.23a.11.11,0,0,1-.06.21Zm3.57-.31a.12.12,0,0,1-.12-.12V34.2a.12.12,0,0,1,.12-.11.11.11,0,0,1,.11.11v.46A.11.11,0,0,1,33.86,34.78Zm-4.36-.15h-.06l-.4-.23a.12.12,0,0,1,0-.16.1.1,0,0,1,.15,0l.4.23a.11.11,0,0,1,0,.16A.12.12,0,0,1,29.5,34.63Zm-.8-.46h-.06l-.4-.24a.11.11,0,0,1,0-.15.11.11,0,0,1,.16,0l.4.23a.11.11,0,0,1,0,.15A.11.11,0,0,1,28.7,34.17Zm5.16-.31a.12.12,0,0,1-.12-.12v-.46a.12.12,0,0,1,.12-.11.11.11,0,0,1,.11.11v.46A.11.11,0,0,1,33.86,33.86Zm-6-.15-.06,0-.39-.23a.11.11,0,0,1-.05-.15.12.12,0,0,1,.16-.05l.4.23a.13.13,0,0,1,0,.16A.11.11,0,0,1,27.9,33.71Zm-.79-.46-.06,0-.4-.23a.11.11,0,0,1,0-.16.12.12,0,0,1,.16,0l.39.23a.12.12,0,0,1-.05.22Zm6.75-.31a.12.12,0,0,1-.12-.12v-.46a.12.12,0,0,1,.12-.11.11.11,0,0,1,.11.11v.46A.11.11,0,0,1,33.86,32.94Zm-7.55-.15-.06,0-.4-.23a.12.12,0,0,1,.12-.2l.4.23a.12.12,0,0,1,0,.16A.11.11,0,0,1,26.31,32.79Zm-.8-.46-.06,0-.39-.23a.12.12,0,0,1,0-.16.13.13,0,0,1,.16,0l.4.23a.12.12,0,0,1,0,.16A.13.13,0,0,1,25.51,32.33ZM33.86,32a.12.12,0,0,1-.12-.12v-.46a.12.12,0,0,1,.12-.11.11.11,0,0,1,.11.11v.46A.11.11,0,0,1,33.86,32Zm-9.14-.16h-.06l-.4-.23a.11.11,0,0,1,0-.16.12.12,0,0,1,.16,0l.39.23a.12.12,0,0,1,.05.16A.14.14,0,0,1,24.72,31.86Zm-.8-.46h-.06l-.4-.23a.13.13,0,0,1,0-.16.11.11,0,0,1,.16,0l.4.23a.11.11,0,0,1-.06.21Zm9.94-.3a.13.13,0,0,1-.12-.12v-.46a.12.12,0,0,1,.12-.11.11.11,0,0,1,.11.11V31A.12.12,0,0,1,33.86,31.1Zm-10.74-.16h-.06l-.39-.24a.11.11,0,0,1-.05-.15.11.11,0,0,1,.16,0l.4.23a.1.1,0,0,1,0,.15A.11.11,0,0,1,23.12,30.94Zm-.79-.46-.06,0-.4-.23a.11.11,0,0,1,0-.15A.12.12,0,0,1,22,30l.39.24a.11.11,0,0,1,.05.15A.12.12,0,0,1,22.33,30.48Zm11.53-.3a.13.13,0,0,1-.12-.12V29.6a.12.12,0,0,1,.12-.11.11.11,0,0,1,.11.11v.46A.12.12,0,0,1,33.86,30.18ZM21.53,30l-.06,0-.4-.23a.12.12,0,0,1,.12-.2l.4.23a.13.13,0,0,1,0,.16A.11.11,0,0,1,21.53,30Zm-.8-.46-.05,0-.4-.23a.11.11,0,0,1,0-.16.11.11,0,0,1,.15,0l.4.23a.11.11,0,0,1,0,.16A.11.11,0,0,1,20.73,29.56Zm13.13-.31a.12.12,0,0,1-.12-.11v-.46a.13.13,0,0,1,.12-.12.12.12,0,0,1,.11.12v.46A.11.11,0,0,1,33.86,29.25ZM19.94,29.1l-.06,0-.4-.23a.12.12,0,0,1,.12-.2l.39.23A.12.12,0,0,1,20,29,.12.12,0,0,1,19.94,29.1Zm-.8-.47h-.06l-.4-.23a.12.12,0,0,1,0-.16.11.11,0,0,1,.16,0l.4.23a.11.11,0,0,1-.06.21Zm14.72-.3a.12.12,0,0,1-.12-.11v-.46a.13.13,0,0,1,.12-.12.12.12,0,0,1,.11.12v.46A.11.11,0,0,1,33.86,28.33Zm-15.52-.16h-.05l-.4-.23a.11.11,0,0,1,0-.16.1.1,0,0,1,.15,0l.4.23a.11.11,0,0,1,0,.16A.12.12,0,0,1,18.34,28.17Zm-.79-.46h-.06l-.4-.24a.11.11,0,0,1,0-.15.11.11,0,0,1,.16,0l.39.23a.11.11,0,0,1,0,.15A.12.12,0,0,1,17.55,27.71Zm16.31-.3a.12.12,0,0,1-.12-.11v-.46a.12.12,0,0,1,.12-.12.11.11,0,0,1,.11.12v.46A.11.11,0,0,1,33.86,27.41Zm-17.11-.16-.06,0-.4-.23a.11.11,0,0,1,0-.15.12.12,0,0,1,.16-.05l.4.24a.11.11,0,0,1,0,.15A.11.11,0,0,1,16.75,27.25Zm-.8-.46,0,0-.4-.23a.11.11,0,0,1,0-.16.11.11,0,0,1,.15,0l.4.23a.12.12,0,0,1,0,.16A.11.11,0,0,1,16,26.79Zm17.91-.3a.12.12,0,0,1-.12-.11v-.46a.12.12,0,0,1,.12-.12.11.11,0,0,1,.11.12v.46A.11.11,0,0,1,33.86,26.49Zm-18.7-.16-.06,0-.4-.23a.12.12,0,0,1,.12-.2l.39.23a.12.12,0,0,1,0,.16A.11.11,0,0,1,15.16,26.33Zm-.8-.46-.06,0-.4-.23a.12.12,0,0,1,0-.16.13.13,0,0,1,.16,0l.4.23a.12.12,0,0,1,0,.16A.11.11,0,0,1,14.36,25.87Zm19.5-.3a.12.12,0,0,1-.12-.11V25a.12.12,0,0,1,.12-.12A.11.11,0,0,1,34,25v.46A.11.11,0,0,1,33.86,25.57Zm-20.3-.17h-.05l-.4-.23a.11.11,0,0,1,0-.16.11.11,0,0,1,.15,0l.4.23a.11.11,0,0,1,0,.16A.12.12,0,0,1,13.56,25.4Zm-.79-.46h-.06l-.4-.23a.13.13,0,0,1,0-.16.11.11,0,0,1,.16,0l.39.23a.12.12,0,0,1,0,.16A.12.12,0,0,1,12.77,24.94Zm21.09-.29a.12.12,0,0,1-.12-.11v-.46a.12.12,0,0,1,.12-.12.11.11,0,0,1,.11.12v.46A.11.11,0,0,1,33.86,24.65ZM12,24.48h-.06l-.4-.23a.13.13,0,0,1,0-.16.11.11,0,0,1,.16,0l.4.23a.11.11,0,0,1,0,.15A.11.11,0,0,1,12,24.48Zm-.8-.46s0,0-.05,0l-.4-.23a.1.1,0,0,1,0-.15.11.11,0,0,1,.15-.05l.4.24a.1.1,0,0,1,0,.15A.11.11,0,0,1,11.17,24Zm22.69-.29a.12.12,0,0,1-.12-.11v-.46a.12.12,0,0,1,.12-.12.11.11,0,0,1,.11.12v.46A.11.11,0,0,1,33.86,23.73Zm0-.92a.12.12,0,0,1-.12-.11v-.46a.12.12,0,0,1,.12-.12.11.11,0,0,1,.11.12v.46A.11.11,0,0,1,33.86,22.81Zm0-.92a.12.12,0,0,1-.12-.11v-.46a.12.12,0,0,1,.12-.12.11.11,0,0,1,.11.12v.46A.11.11,0,0,1,33.86,21.89Zm0-.92a.12.12,0,0,1-.12-.12v-.46a.12.12,0,0,1,.12-.11.11.11,0,0,1,.11.11v.46A.11.11,0,0,1,33.86,21Zm0-.92a.12.12,0,0,1-.12-.12v-.46a.12.12,0,0,1,.12-.11.11.11,0,0,1,.11.11v.46A.11.11,0,0,1,33.86,20.05Zm0-.92a.12.12,0,0,1-.12-.12v-.46a.12.12,0,0,1,.12-.11.11.11,0,0,1,.11.11V19A.11.11,0,0,1,33.86,19.13Zm0-.92a.12.12,0,0,1-.12-.12v-.46a.12.12,0,0,1,.12-.11.11.11,0,0,1,.11.11v.46A.11.11,0,0,1,33.86,18.21Zm0-.92a.12.12,0,0,1-.12-.12v-.46a.12.12,0,0,1,.12-.11.11.11,0,0,1,.11.11v.46A.11.11,0,0,1,33.86,17.29Zm0-.92a.13.13,0,0,1-.12-.12,1.52,1.52,0,0,0-.06-.42.11.11,0,0,1,.22-.06,1.55,1.55,0,0,1,.07.48.11.11,0,0,1-.11.12Zm-.24-.88a.11.11,0,0,1-.1-.06,1.77,1.77,0,0,0-.26-.35.12.12,0,0,1,.17-.16,2,2,0,0,1,.29.4.11.11,0,0,1,0,.15ZM33,14.82l-.07,0-.09-.05-.3-.18a.11.11,0,0,1,0-.15.12.12,0,0,1,.16-.05l.3.18.1.06a.11.11,0,0,1,0,.16A.12.12,0,0,1,33,14.82Zm-.8-.46-.06,0-.4-.23a.11.11,0,0,1,0-.15.11.11,0,0,1,.16,0l.4.22a.13.13,0,0,1,0,.16A.11.11,0,0,1,32.2,14.36Zm-.8-.46h-.06L31,13.66a.12.12,0,0,1-.05-.16.11.11,0,0,1,.16,0l.4.23a.11.11,0,0,1,0,.15A.11.11,0,0,1,31.4,13.9Zm-.8-.46h-.05l-.4-.23a.12.12,0,0,1,0-.16.13.13,0,0,1,.16,0l.4.23a.1.1,0,0,1,0,.15A.11.11,0,0,1,30.6,13.44ZM29.81,13h-.06l-.4-.23a.11.11,0,0,1,0-.16.11.11,0,0,1,.15,0l.4.23a.12.12,0,0,1,.05.16A.16.16,0,0,1,29.81,13Zm-.8-.45-.06,0-.4-.23a.12.12,0,0,1,.12-.2l.39.23a.12.12,0,0,1,.05.16A.13.13,0,0,1,29,12.53Zm-.8-.46-.06,0-.4-.23a.11.11,0,0,1,0-.15.12.12,0,0,1,.16-.05l.4.23a.12.12,0,0,1,0,.16A.11.11,0,0,1,28.21,12.07Zm-.8-.46-.06,0-.4-.23a.11.11,0,0,1,0-.15.12.12,0,0,1,.16-.05l.4.23a.13.13,0,0,1,0,.16A.11.11,0,0,1,27.41,11.61Zm-.8-.46a.07.07,0,0,1-.06,0l-.39-.22a.12.12,0,0,1-.05-.16.11.11,0,0,1,.16,0l.4.23a.11.11,0,0,1,0,.15A.11.11,0,0,1,26.61,11.15Zm-.8-.46h0l-.4-.23a.11.11,0,1,1,.11-.2l.4.23a.1.1,0,0,1,0,.15A.11.11,0,0,1,25.81,10.69ZM25,10.23H25l-.4-.23a.11.11,0,0,1,0-.16.11.11,0,0,1,.15,0l.4.23a.12.12,0,0,1,.05.16A.14.14,0,0,1,25,10.23Zm-.8-.46h-.06l-.4-.23a.12.12,0,0,1,.12-.2l.39.23a.12.12,0,0,1,.05.16A.12.12,0,0,1,24.22,9.77Zm-.8-.45-.06,0L23,9.07a.12.12,0,0,1,.12-.2l.4.23a.12.12,0,0,1,0,.16A.11.11,0,0,1,23.42,9.32Zm-.8-.46-.06,0-.4-.23a.11.11,0,0,1,0-.15.12.12,0,0,1,.16-.05l.4.23a.13.13,0,0,1,0,.16A.11.11,0,0,1,22.62,8.86Zm-.8-.46-.06,0-.39-.23A.11.11,0,0,1,21.32,8a.11.11,0,0,1,.16,0l.4.22a.13.13,0,0,1,0,.16A.11.11,0,0,1,21.82,8.4ZM21,7.94H21l-.4-.23a.11.11,0,0,1,0-.16.1.1,0,0,1,.15,0l.4.23a.1.1,0,0,1,0,.15A.11.11,0,0,1,21,7.94Zm-.79-.46h-.06l-.4-.23a.11.11,0,0,1,.11-.2l.4.23a.11.11,0,0,1,0,.15A.12.12,0,0,1,20.23,7.48ZM19.43,7h-.06L19,6.78a.12.12,0,1,1,.12-.2l.39.23a.12.12,0,0,1,.05.16A.12.12,0,0,1,19.43,7Zm-.8-.45-.06,0-.4-.23a.12.12,0,0,1,.12-.2l.4.23a.12.12,0,0,1,0,.16A.13.13,0,0,1,18.63,6.57Zm-.8-.46-.06,0-.4-.23a.11.11,0,0,1,0-.15.12.12,0,0,1,.16,0l.4.23a.12.12,0,0,1,0,.16A.11.11,0,0,1,17.83,6.11ZM17,5.65l-.05,0-.4-.23a.11.11,0,0,1,0-.15.12.12,0,0,1,.16,0l.4.23a.13.13,0,0,1,0,.16A.11.11,0,0,1,17,5.65Zm-.8-.46h-.05L15.78,5a.11.11,0,0,1,0-.16.1.1,0,0,1,.15,0l.4.23a.1.1,0,0,1,0,.15A.11.11,0,0,1,16.23,5.19Zm-.79-.46h-.06L15,4.49a.11.11,0,0,1,0-.16.1.1,0,0,1,.15,0l.4.23a.11.11,0,0,1,0,.15A.12.12,0,0,1,15.44,4.73Zm-.8-.46h-.06L14.18,4a.12.12,0,1,1,.12-.2l.4.23a.11.11,0,0,1-.06.21Zm-.8-.46h-.06l-.4-.23a.12.12,0,1,1,.12-.2l.4.23a.11.11,0,0,1-.06.21ZM13,3.36l-.06,0-.4-.23a.12.12,0,1,1,.12-.2l.4.23a.12.12,0,0,1,0,.16A.11.11,0,0,1,13,3.36Zm-.8-.46-.05,0-.4-.23a.11.11,0,0,1,0-.15.12.12,0,0,1,.16,0l.4.23a.12.12,0,0,1,0,.16A.11.11,0,0,1,12.24,2.9Zm-.8-.46,0,0L11,2.2A.11.11,0,0,1,11,2a.1.1,0,0,1,.15,0l.4.22a.12.12,0,0,1-.06.22ZM6.12,2.1h0A.11.11,0,0,1,6,2a.7.7,0,0,1,.27-.47.1.1,0,0,1,.16,0,.11.11,0,0,1,0,.16.45.45,0,0,0-.19.3A.11.11,0,0,1,6.12,2.1ZM10.65,2h-.06l-.4-.23a.12.12,0,0,1,0-.16.1.1,0,0,1,.15,0l.4.23a.11.11,0,0,1,.05.15A.12.12,0,0,1,10.65,2Zm-.8-.46H9.79a2.1,2.1,0,0,0-.4-.18.11.11,0,0,1-.07-.14.1.1,0,0,1,.14-.07,2,2,0,0,1,.44.19.11.11,0,0,1,0,.15A.11.11,0,0,1,9.85,1.52ZM6.73,1.47a.12.12,0,0,1-.1-.07.11.11,0,0,1,0-.15,1.83,1.83,0,0,1,.45-.17.11.11,0,0,1,.14.07.12.12,0,0,1-.08.15,2.19,2.19,0,0,0-.41.15ZM9,1.22H9a3.11,3.11,0,0,0-.44-.06A.11.11,0,0,1,8.41,1,.12.12,0,0,1,8.53.93L9,1a.1.1,0,0,1,.09.13A.11.11,0,0,1,9,1.22Zm-1.37,0a.12.12,0,0,1-.12-.1A.12.12,0,0,1,7.59,1a3.57,3.57,0,0,1,.47,0A.11.11,0,0,1,8.18,1a.13.13,0,0,1-.11.12,3.42,3.42,0,0,0-.45,0Z"/><g class="cls-14"><path class="cls-15" d="M33.07,25.49l-.06,0-.4-.23a.1.1,0,0,1,0-.15.1.1,0,0,1,.15,0l.4.22a.12.12,0,0,1,0,.22Zm-.8-.46h-.06l-.4-.23a.13.13,0,0,1,0-.16.11.11,0,0,1,.16,0l.4.23a.11.11,0,0,1,0,.15A.11.11,0,0,1,32.27,25Zm-.8-.46h-.06l-.4-.23a.12.12,0,0,1,.12-.2l.4.23a.11.11,0,0,1,0,.15A.11.11,0,0,1,31.47,24.57Zm-.8-.46h-.06l-.4-.23a.12.12,0,0,1,.12-.2l.4.23a.11.11,0,0,1-.06.21Zm-.8-.45-.05,0-.4-.23a.12.12,0,0,1-.05-.16.13.13,0,0,1,.16,0l.4.23a.11.11,0,0,1,0,.16A.13.13,0,0,1,29.87,23.66Zm-.8-.46-.05,0-.4-.23a.1.1,0,0,1,0-.15.11.11,0,0,1,.15-.05l.4.23a.11.11,0,0,1,0,.16A.11.11,0,0,1,29.07,23.2Zm-.79-.46-.06,0-.4-.23a.1.1,0,0,1,0-.15.11.11,0,0,1,.15-.05l.4.23a.12.12,0,0,1,0,.22Zm-.8-.46-.06,0L27,22a.13.13,0,0,1,0-.16.11.11,0,0,1,.16,0l.4.22a.13.13,0,0,1,0,.16A.11.11,0,0,1,27.48,22.28Zm-.8-.46h-.06l-.4-.23a.12.12,0,0,1,0-.16.11.11,0,0,1,.16,0l.4.23a.11.11,0,0,1,0,.15A.11.11,0,0,1,26.68,21.82Zm-.8-.46h-.06l-.39-.23a.12.12,0,0,1-.05-.16.12.12,0,0,1,.16,0l.4.23a.11.11,0,0,1-.06.21Zm-.8-.46h0l-.4-.23a.12.12,0,0,1-.05-.16.13.13,0,0,1,.16,0l.4.23a.11.11,0,0,1,0,.16A.12.12,0,0,1,25.08,20.9Zm-.8-.45-.05,0-.4-.23a.11.11,0,0,1,0-.16.11.11,0,0,1,.15,0l.4.23a.11.11,0,0,1,0,.16A.11.11,0,0,1,24.28,20.45ZM23.49,20l-.06,0-.4-.23a.11.11,0,0,1,0-.15.12.12,0,0,1,.16-.05l.39.23a.12.12,0,0,1,.05.16A.11.11,0,0,1,23.49,20Zm-.8-.46-.06,0-.4-.23a.11.11,0,0,1,0-.15.11.11,0,0,1,.16,0l.4.22a.13.13,0,0,1,0,.16A.11.11,0,0,1,22.69,19.53Zm-.8-.46h-.06l-.4-.23a.13.13,0,0,1,0-.16.11.11,0,0,1,.16,0l.4.23A.11.11,0,0,1,22,19,.11.11,0,0,1,21.89,19.07Zm-.8-.46H21l-.39-.23a.12.12,0,0,1-.05-.16.13.13,0,0,1,.16,0l.4.23a.11.11,0,0,1,0,.15A.11.11,0,0,1,21.09,18.61Zm-.8-.46h-.05l-.4-.23a.12.12,0,0,1-.05-.16.13.13,0,0,1,.16,0l.4.23a.11.11,0,0,1,0,.16A.12.12,0,0,1,20.29,18.15Zm-.79-.45-.06,0-.4-.23a.11.11,0,0,1,0-.16.11.11,0,0,1,.15,0l.4.23a.12.12,0,0,1,.05.16A.15.15,0,0,1,19.5,17.7Zm-.8-.46-.06,0-.4-.23a.11.11,0,0,1,0-.15.12.12,0,0,1,.16-.05l.39.23a.12.12,0,0,1,.05.16A.11.11,0,0,1,18.7,17.24Zm-.8-.46-.06,0-.4-.23a.11.11,0,0,1,0-.15.12.12,0,0,1,.16-.05l.4.23a.13.13,0,0,1,0,.16A.11.11,0,0,1,17.9,16.78Zm-.8-.46a.07.07,0,0,1-.06,0l-.4-.22a.13.13,0,0,1,0-.16.11.11,0,0,1,.16,0l.4.23a.11.11,0,0,1,0,.15A.11.11,0,0,1,17.1,16.32Zm-.8-.46h-.06l-.39-.23a.12.12,0,0,1,0-.16.12.12,0,0,1,.16,0l.4.23a.11.11,0,0,1,0,.15A.11.11,0,0,1,16.3,15.86Zm-.8-.46h-.05l-.4-.23A.12.12,0,0,1,15,15a.13.13,0,0,1,.16,0l.4.23a.11.11,0,0,1,0,.16A.12.12,0,0,1,15.5,15.4Zm-.79-.46h-.06l-.4-.23a.11.11,0,0,1,.11-.2l.4.23a.12.12,0,0,1,.05.16A.14.14,0,0,1,14.71,14.94Zm-.8-.45-.06,0-.4-.23a.12.12,0,0,1,.12-.2l.39.23a.12.12,0,0,1,0,.16A.11.11,0,0,1,13.91,14.49Zm-.8-.46-.06,0-.4-.23a.11.11,0,0,1,0-.15.12.12,0,0,1,.16-.05l.4.23a.13.13,0,0,1,0,.16A.11.11,0,0,1,13.11,14Zm-.8-.46-.06,0-.4-.23a.11.11,0,0,1,0-.15.11.11,0,0,1,.16,0l.4.22a.13.13,0,0,1,0,.16A.11.11,0,0,1,12.31,13.57Zm-.8-.46h0l-.4-.23a.12.12,0,0,1-.05-.16.12.12,0,0,1,.16,0l.4.23a.11.11,0,0,1,0,.15A.11.11,0,0,1,11.51,13.11Zm-.8-.46h-.05l-.4-.23a.11.11,0,0,1,0-.16.11.11,0,0,1,.15,0l.4.23a.1.1,0,0,1,0,.15A.11.11,0,0,1,10.71,12.65Z"/></g><path class="cls-15" d="M6.47,3a1.9,1.9,0,0,1-.94-1.17V24.68a1.7,1.7,0,0,0,.94,1.38h0l22.8,13.2a1,1,0,0,0,1.49-.85V18.33a2.53,2.53,0,0,0-1.27-2.18Z"/><path class="cls-4" d="M29.93,15.93,6.91,2.75a1.42,1.42,0,0,1-.79-1v1.5l.11.08,4,21,21,12.16V18.12A2.52,2.52,0,0,0,29.93,15.93Z"/><path class="cls-4" d="M6.47,3a1.9,1.9,0,0,1-.94-1.17V24.68a1.7,1.7,0,0,0,.94,1.38h0l22.8,13.2a1,1,0,0,0,1.49-.85V18.33a2.53,2.53,0,0,0-1.27-2.18Z"/><path class="cls-8" d="M6.31,3.13a1.4,1.4,0,0,1-.79-1V25a1.29,1.29,0,0,0,.79,1.22v0L29.1,39.44a1,1,0,0,0,1.49-.86V18.5a2.52,2.52,0,0,0-1.26-2.19Z"/><path class="cls-8" d="M7.6,25.47,7,25.09a.53.53,0,0,1-.13-.1v-20L28.67,17.45a1.2,1.2,0,0,1,.61,1.05V38Z"/><path class="cls-9" d="M29.6,39.24a.63.63,0,0,1-.33-.09l-22.41-13L6,25.6a1,1,0,0,1-.61-.89v0a.42.42,0,0,1,.48-.38.43.43,0,0,1,.39.42.54.54,0,0,0,.19.14l.87.57L29.38,38.2V18.5a1.31,1.31,0,0,0-.66-1.14L5.56,4.05A.44.44,0,0,1,6,3.29L29.16,16.6a2.2,2.2,0,0,1,1.1,1.9V38.58a.63.63,0,0,1-.2.47A.68.68,0,0,1,29.6,39.24Z"/><path class="cls-10" d="M5.47,3.49a.2.2,0,0,1,.09-.09s0,0,.05,0a.53.53,0,0,1,.44,0L29.12,16.67a2.13,2.13,0,0,1,1.06,1.83v20a.78.78,0,0,1,0,.22A.55.55,0,0,1,30,39a.56.56,0,0,1-.4.17.6.6,0,0,1-.29-.08L7.06,26.19l-.66-.41-.22-.14a1.68,1.68,0,0,1-.59-.56.9.9,0,0,1-.08-.25v0a.36.36,0,0,1,.15-.36l0,0a.29.29,0,0,1,.17-.05.37.37,0,0,1,.32.36.67.67,0,0,0,.14.11s.68.48.74.52l.85.5L29.27,38.23l.15-.43h0v0s0,0,0,0V18.68a1.72,1.72,0,0,0-.14-.68,1.26,1.26,0,0,0-.39-.52,6.51,6.51,0,0,0-.79-.55L5.71,4c-.12-.07-.28-.25-.27-.37A.29.29,0,0,1,5.47,3.49Z"/><path class="cls-11" d="M5.54,3.53a.14.14,0,0,1,.09-.08l.06,0c.06,0,.35.06.42.11l23,13.2a2,2,0,0,1,1,1.76v20a1.5,1.5,0,0,1,0,.22.47.47,0,0,1-.13.25.52.52,0,0,1-.35.14.45.45,0,0,1-.25-.07L7.26,26.22l-.65-.41-.22-.13a2.48,2.48,0,0,1-.61-.52.56.56,0,0,1-.13-.22s0,0,0,0a.39.39,0,0,1,0-.38l0,0a.2.2,0,0,1,.16-.07.28.28,0,0,1,.25.28s0,.07.09.09a4.77,4.77,0,0,0,.61.46l.85.52L29.15,38.25l.32-.16h0l0,0a.1.1,0,0,0,0,0V18.86a2.69,2.69,0,0,0-.09-.7,1.35,1.35,0,0,0-.31-.56,3,3,0,0,0-.75-.62L5.85,4c-.08-.05-.32-.25-.32-.33A.17.17,0,0,1,5.54,3.53Z"/><path class="cls-12" d="M5.61,3.57a.12.12,0,0,1,.1-.07h0a1.74,1.74,0,0,1,.41.16L29,16.81a2,2,0,0,1,1,1.69V38.42a1.62,1.62,0,0,1,0,.22.39.39,0,0,1-.12.24.4.4,0,0,1-.29.12.42.42,0,0,1-.21-.06L7.47,26.24l-.66-.39-.22-.14A5.25,5.25,0,0,1,6,25.25a1.13,1.13,0,0,1-.19-.19s0,0,0,0a.41.41,0,0,1-.09-.38l0,0a.15.15,0,0,1,.14-.09.19.19,0,0,1,.18.21s0,.05,0,.06a1.59,1.59,0,0,0,.49.41l.85.54L29,38.27l.48.11h0l.06,0a.08.08,0,0,0,0-.06V19a5.36,5.36,0,0,0-.05-.7,1.4,1.4,0,0,0-.22-.62,2,2,0,0,0-.72-.67L6,4s-.37-.24-.36-.28A.12.12,0,0,1,5.61,3.57Z"/><path class="cls-13" d="M29.6,38.92a.34.34,0,0,1-.17-.05L7,25.89l-.86-.56c-.3-.17-.48-.4-.46-.58v0a.13.13,0,0,1,.13-.11.12.12,0,0,1,.11.13v0c0,.06.09.21.35.36l.86.55,22.41,13h.05a.11.11,0,0,0,.07,0s0,0,0-.07V18.5a1.62,1.62,0,0,0-.82-1.41L5.72,3.77a.11.11,0,0,1,0-.16.11.11,0,0,1,.1-.06h.06L29,16.88a1.87,1.87,0,0,1,.94,1.62V38.58a.35.35,0,0,1-.1.24A.37.37,0,0,1,29.6,38.92Z"/><path class="cls-4" d="M29.6,38.92a.37.37,0,0,1-.17-.05l-.13-.08a.12.12,0,0,1-.05-.16.13.13,0,0,1,.16,0l.14.08.05,0a.13.13,0,0,0,.07,0,.12.12,0,0,1,.17,0,.11.11,0,0,1,0,.15l0,0A.34.34,0,0,1,29.6,38.92ZM29,38.58l-.06,0-.4-.23a.12.12,0,0,1,.12-.2l.39.23a.12.12,0,0,1,0,.16A.15.15,0,0,1,29,38.58Zm.86-.19a.12.12,0,0,1-.12-.11v-.46a.12.12,0,0,1,.12-.12.11.11,0,0,1,.11.12v.46A.11.11,0,0,1,29.82,38.39Zm-1.66-.28H28.1l-.4-.23a.12.12,0,0,1,0-.16.11.11,0,0,1,.16,0l.4.23a.11.11,0,0,1-.06.21Zm-.8-.46h-.05l-.4-.23a.12.12,0,0,1-.05-.16.12.12,0,0,1,.16,0l.4.23a.11.11,0,0,1,0,.16A.12.12,0,0,1,27.36,37.65Zm2.46-.18a.12.12,0,0,1-.12-.11V36.9a.12.12,0,0,1,.12-.12.11.11,0,0,1,.11.12v.46A.11.11,0,0,1,29.82,37.47Zm-3.25-.28h-.06l-.4-.24a.11.11,0,0,1,0-.15.11.11,0,0,1,.16,0l.39.23a.11.11,0,0,1,.05.15A.12.12,0,0,1,26.57,37.19Zm-.8-.46-.06,0-.4-.23a.11.11,0,0,1,0-.15.12.12,0,0,1,.16,0l.4.23a.13.13,0,0,1,0,.16A.11.11,0,0,1,25.77,36.73Zm4.05-.18a.12.12,0,0,1-.12-.11V36a.12.12,0,0,1,.12-.12.11.11,0,0,1,.11.12v.46A.11.11,0,0,1,29.82,36.55ZM25,36.27l0,0-.4-.23a.11.11,0,0,1,0-.16.11.11,0,0,1,.15,0l.4.23a.12.12,0,0,1,0,.16A.11.11,0,0,1,25,36.27Zm-.79-.46-.06,0-.4-.23a.12.12,0,0,1,.12-.2l.39.23a.12.12,0,0,1,.05.16A.12.12,0,0,1,24.18,35.81Zm5.64-.18a.12.12,0,0,1-.12-.11v-.47a.12.12,0,0,1,.12-.11.11.11,0,0,1,.11.11v.47A.11.11,0,0,1,29.82,35.63Zm-6.44-.28-.06,0-.4-.23a.12.12,0,1,1,.12-.2l.4.23a.12.12,0,0,1,0,.16A.13.13,0,0,1,23.38,35.35Zm-.8-.47h0l-.4-.23a.11.11,0,0,1,0-.16.1.1,0,0,1,.15,0l.4.23a.11.11,0,0,1,0,.16A.12.12,0,0,1,22.58,34.88Zm7.24-.17a.12.12,0,0,1-.12-.12v-.46a.12.12,0,0,1,.12-.11.11.11,0,0,1,.11.11v.46A.11.11,0,0,1,29.82,34.71Zm-8-.29h-.06l-.4-.23a.13.13,0,0,1,0-.16.11.11,0,0,1,.16,0l.39.23a.12.12,0,0,1,.05.16A.14.14,0,0,1,21.79,34.42ZM21,34h-.06l-.4-.24a.11.11,0,0,1,0-.15.11.11,0,0,1,.16,0l.4.23a.11.11,0,0,1,0,.15A.11.11,0,0,1,21,34Zm8.83-.17a.12.12,0,0,1-.12-.12v-.46a.12.12,0,0,1,.12-.11.11.11,0,0,1,.11.11v.46A.11.11,0,0,1,29.82,33.79Zm-9.63-.29-.05,0-.4-.23a.1.1,0,0,1,0-.15.11.11,0,0,1,.15-.05l.4.24a.1.1,0,0,1,0,.15A.11.11,0,0,1,20.19,33.5ZM19.4,33l-.06,0-.4-.23a.12.12,0,0,1,.12-.2l.39.23a.12.12,0,0,1,.05.16A.11.11,0,0,1,19.4,33Zm10.42-.17a.12.12,0,0,1-.12-.12v-.46a.12.12,0,0,1,.12-.11.11.11,0,0,1,.11.11v.46A.11.11,0,0,1,29.82,32.87ZM18.6,32.58l-.06,0-.4-.23a.12.12,0,0,1,0-.16.13.13,0,0,1,.16,0l.4.23a.12.12,0,0,1,0,.16A.11.11,0,0,1,18.6,32.58Zm-.8-.46-.05,0-.4-.23a.11.11,0,0,1,0-.16.11.11,0,0,1,.15,0l.4.23a.11.11,0,0,1,0,.16A.11.11,0,0,1,17.8,32.12Zm12-.17a.12.12,0,0,1-.12-.12v-.46a.12.12,0,0,1,.12-.11.11.11,0,0,1,.11.11v.46A.11.11,0,0,1,29.82,32ZM17,31.65H17l-.4-.23a.12.12,0,0,1,0-.16.11.11,0,0,1,.16,0l.39.23a.12.12,0,0,1,.05.16A.12.12,0,0,1,17,31.65Zm-.8-.46h-.06l-.4-.23a.13.13,0,0,1,0-.16.12.12,0,0,1,.16,0l.4.23a.11.11,0,0,1-.06.21ZM29.82,31a.12.12,0,0,1-.12-.12v-.46a.12.12,0,0,1,.12-.11.11.11,0,0,1,.11.11v.46A.11.11,0,0,1,29.82,31Zm-14.41-.3h-.05l-.4-.24a.11.11,0,0,1,.11-.19l.4.23a.1.1,0,0,1,0,.15A.11.11,0,0,1,15.41,30.73Zm-.79-.46-.06,0-.4-.23a.11.11,0,0,1,0-.15.12.12,0,0,1,.16-.05l.4.24a.11.11,0,0,1,0,.15A.11.11,0,0,1,14.62,30.27Zm15.2-.16A.12.12,0,0,1,29.7,30v-.46a.12.12,0,0,1,.12-.11.11.11,0,0,1,.11.11V30A.11.11,0,0,1,29.82,30.11Zm-16-.3-.06,0-.4-.23a.12.12,0,0,1,0-.16.13.13,0,0,1,.16,0l.4.23a.13.13,0,0,1,0,.16A.11.11,0,0,1,13.82,29.81Zm-.8-.46,0,0-.4-.23a.11.11,0,0,1,0-.16.11.11,0,0,1,.15,0l.4.23a.11.11,0,0,1,0,.16A.11.11,0,0,1,13,29.35Zm16.8-.16a.13.13,0,0,1-.12-.12v-.46a.12.12,0,0,1,.12-.11.11.11,0,0,1,.11.11v.46A.12.12,0,0,1,29.82,29.19Zm-17.59-.3-.06,0-.4-.23a.12.12,0,0,1,.12-.2l.4.23a.12.12,0,0,1,0,.16A.11.11,0,0,1,12.23,28.89Zm-.8-.47h-.06L11,28.18a.12.12,0,0,1-.05-.16.13.13,0,0,1,.16,0l.4.23a.11.11,0,0,1-.06.21Zm18.39-.15a.13.13,0,0,1-.12-.12v-.46a.12.12,0,0,1,.12-.11.11.11,0,0,1,.11.11v.46A.12.12,0,0,1,29.82,28.27ZM10.63,28h-.05l-.4-.23a.11.11,0,0,1,0-.16.1.1,0,0,1,.15,0l.4.23a.11.11,0,0,1,0,.16A.12.12,0,0,1,10.63,28Zm-.79-.46H9.78l-.4-.23a.13.13,0,0,1,0-.16.11.11,0,0,1,.16,0l.4.23a.11.11,0,0,1,0,.15A.11.11,0,0,1,9.84,27.5Zm20-.15a.13.13,0,0,1-.12-.12v-.46a.13.13,0,0,1,.12-.12.12.12,0,0,1,.11.12v.46A.12.12,0,0,1,29.82,27.35ZM9,27A.07.07,0,0,1,9,27l-.39-.23a.11.11,0,0,1-.05-.15.12.12,0,0,1,.16-.05l.4.24a.11.11,0,0,1,0,.15A.11.11,0,0,1,9,27Zm-.8-.46-.05,0-.4-.23a.11.11,0,0,1,.11-.2l.4.23a.12.12,0,0,1-.06.22Zm21.58-.16a.12.12,0,0,1-.12-.11v-.46a.13.13,0,0,1,.12-.12.12.12,0,0,1,.11.12v.46A.11.11,0,0,1,29.82,26.42Zm-22.37-.3-.06,0L7,25.87a.12.12,0,1,1,.12-.2l0,0,.37.21a.12.12,0,0,1,0,.16A.11.11,0,0,1,7.45,26.12Zm-.79-.48-.06,0-.39-.25a.12.12,0,0,1,.13-.2l.39.25a.12.12,0,0,1,0,.16A.11.11,0,0,1,6.66,25.64Zm23.16-.14a.12.12,0,0,1-.12-.11v-.46a.13.13,0,0,1,.12-.12.12.12,0,0,1,.11.12v.46A.11.11,0,0,1,29.82,25.5ZM5.91,25.11a.09.09,0,0,1-.08,0,.46.46,0,0,1-.14-.29v-.07a.11.11,0,0,1,.12-.1.11.11,0,0,1,.11.12v0a.25.25,0,0,0,.08.15.11.11,0,0,1,0,.16A.11.11,0,0,1,5.91,25.11Zm23.91-.53a.12.12,0,0,1-.12-.11V24a.12.12,0,0,1,.12-.12.11.11,0,0,1,.11.12v.46A.11.11,0,0,1,29.82,24.58Zm0-.92a.12.12,0,0,1-.12-.11v-.46a.12.12,0,0,1,.12-.12.11.11,0,0,1,.11.12v.46A.11.11,0,0,1,29.82,23.66Zm0-.92a.12.12,0,0,1-.12-.11v-.46a.12.12,0,0,1,.12-.12.11.11,0,0,1,.11.12v.46A.11.11,0,0,1,29.82,22.74Zm0-.92a.12.12,0,0,1-.12-.11v-.46a.12.12,0,0,1,.12-.12.11.11,0,0,1,.11.12v.46A.11.11,0,0,1,29.82,21.82Zm0-.92a.12.12,0,0,1-.12-.11v-.46a.12.12,0,0,1,.12-.12.11.11,0,0,1,.11.12v.46A.11.11,0,0,1,29.82,20.9Zm0-.92a.12.12,0,0,1-.12-.11v-.46a.12.12,0,0,1,.12-.12.11.11,0,0,1,.11.12v.46A.11.11,0,0,1,29.82,20Zm0-.92A.12.12,0,0,1,29.7,19V18.5a.12.12,0,0,1,.12-.12.1.1,0,0,1,.11.1h0V19A.11.11,0,0,1,29.82,19.06Zm-.06-.91a.13.13,0,0,1-.12-.09,1.34,1.34,0,0,0-.16-.39.11.11,0,0,1,0-.16.1.1,0,0,1,.15,0,1.82,1.82,0,0,1,.2.45.12.12,0,0,1-.08.14Zm-.47-.79a.11.11,0,0,1-.08,0,1.59,1.59,0,0,0-.33-.25l0-.11.06-.1h0a2,2,0,0,1,.37.28.12.12,0,0,1,0,.17A.11.11,0,0,1,29.29,17.36Zm-.76-.5-.06,0-.4-.23a.1.1,0,0,1,0-.15.11.11,0,0,1,.15-.05l.4.23a.11.11,0,0,1,0,.16A.11.11,0,0,1,28.53,16.86Zm-.8-.46-.06,0-.4-.23a.11.11,0,0,1,0-.15.12.12,0,0,1,.16-.05l.39.23a.12.12,0,0,1,0,.16A.11.11,0,0,1,27.73,16.4Zm-.8-.46a.07.07,0,0,1-.06,0l-.4-.22a.13.13,0,0,1,0-.16.11.11,0,0,1,.16,0l.4.23a.11.11,0,0,1,0,.15A.11.11,0,0,1,26.93,15.94Zm-.8-.46h-.06l-.4-.23a.13.13,0,0,1,0-.16.11.11,0,0,1,.16,0l.4.23a.11.11,0,0,1,0,.15A.11.11,0,0,1,26.13,15.48Zm-.8-.46h0l-.4-.23a.12.12,0,0,1-.05-.16.13.13,0,0,1,.16,0l.4.23a.1.1,0,0,1,0,.15A.11.11,0,0,1,25.33,15Zm-.8-.46h-.05l-.4-.23a.11.11,0,0,1,0-.16.11.11,0,0,1,.15,0l.4.23a.11.11,0,0,1,0,.16A.12.12,0,0,1,24.53,14.56Zm-.79-.46h-.06l-.4-.23a.12.12,0,0,1,0-.16.11.11,0,0,1,.15,0l.4.23a.12.12,0,0,1,.05.16A.12.12,0,0,1,23.74,14.1Zm-.8-.45-.06,0-.4-.23a.12.12,0,0,1,.12-.2l.4.23a.12.12,0,0,1,0,.16A.11.11,0,0,1,22.94,13.65Zm-.8-.46-.06,0-.4-.23a.11.11,0,0,1,0-.15.12.12,0,0,1,.16,0l.4.23a.12.12,0,0,1,0,.16A.11.11,0,0,1,22.14,13.19Zm-.8-.46-.05,0-.4-.23a.11.11,0,0,1-.05-.15.12.12,0,0,1,.16-.05l.4.23a.13.13,0,0,1,0,.16A.11.11,0,0,1,21.34,12.73Zm-.8-.46-.05,0-.4-.22a.11.11,0,0,1,0-.16.1.1,0,0,1,.15,0l.4.22a.12.12,0,0,1-.06.22Zm-.79-.46h-.06l-.4-.23a.12.12,0,0,1,0-.16.1.1,0,0,1,.15,0l.4.23a.11.11,0,0,1,.05.15A.12.12,0,0,1,19.75,11.81Zm-.8-.46h-.06l-.4-.23a.12.12,0,0,1,0-.16.11.11,0,0,1,.16,0l.4.23a.11.11,0,0,1,0,.15A.11.11,0,0,1,19,11.35Zm-.8-.46h-.06l-.4-.23a.12.12,0,1,1,.12-.2l.4.23a.11.11,0,0,1-.06.21Zm-.8-.46h-.06l-.39-.23a.12.12,0,0,1,0-.16A.13.13,0,0,1,17,10l.4.23a.11.11,0,0,1-.06.21Zm-.8-.45-.05,0-.4-.23a.11.11,0,0,1,0-.16.11.11,0,0,1,.15,0l.4.23a.11.11,0,0,1,0,.16A.13.13,0,0,1,16.55,10Zm-.79-.46-.06,0-.4-.23a.1.1,0,0,1,0-.15.11.11,0,0,1,.15,0l.4.23a.12.12,0,0,1,0,.16A.12.12,0,0,1,15.76,9.52ZM15,9.06,14.9,9l-.4-.23a.11.11,0,0,1,0-.15.12.12,0,0,1,.16-.05l.4.23a.13.13,0,0,1,0,.16A.11.11,0,0,1,15,9.06Zm-.8-.46-.06,0-.4-.23a.11.11,0,0,1,0-.15.12.12,0,0,1,.16,0l.4.23a.13.13,0,0,1,0,.16A.11.11,0,0,1,14.16,8.6Zm-.8-.46H13.3l-.39-.23a.12.12,0,0,1-.05-.16.11.11,0,0,1,.16,0l.4.23a.11.11,0,0,1,0,.15A.11.11,0,0,1,13.36,8.14Zm-.8-.46h-.05l-.4-.23a.12.12,0,0,1,0-.16.12.12,0,0,1,.16,0l.4.23a.1.1,0,0,1,0,.15A.11.11,0,0,1,12.56,7.68Zm-.79-.46h-.06L11.31,7a.11.11,0,0,1,.11-.2l.4.23a.11.11,0,0,1,0,.15A.12.12,0,0,1,11.77,7.22ZM11,6.76h-.06l-.4-.23a.12.12,0,1,1,.12-.2l.39.23a.12.12,0,0,1,.05.16A.12.12,0,0,1,11,6.76Zm-.8-.45-.06,0-.4-.23a.12.12,0,1,1,.12-.2l.4.23a.12.12,0,0,1,0,.16A.13.13,0,0,1,10.17,6.31Zm-.8-.46-.06,0-.4-.23A.12.12,0,1,1,9,5.4l.4.23a.12.12,0,0,1,0,.16A.11.11,0,0,1,9.37,5.85Zm-.8-.46-.05,0-.4-.23a.11.11,0,0,1,0-.15.12.12,0,0,1,.16,0l.4.23a.11.11,0,0,1,0,.16A.11.11,0,0,1,8.57,5.39Zm-.79-.46-.06,0-.4-.23a.1.1,0,0,1,0-.15.11.11,0,0,1,.15,0l.4.23a.11.11,0,0,1,0,.16A.11.11,0,0,1,7.78,4.93ZM7,4.47l-.06,0-.4-.22a.13.13,0,0,1,0-.16.11.11,0,0,1,.16,0L7,4.25a.12.12,0,0,1,0,.16A.11.11,0,0,1,7,4.47ZM6.18,4H6.12l-.4-.23a.13.13,0,0,1,0-.16.11.11,0,0,1,.16,0l.4.23a.11.11,0,0,1,0,.15A.11.11,0,0,1,6.18,4Z"/><path class="cls-16" d="M7.31,10.3c0,3.76-.33,6.81-.73,6.81s-.73-3-.73-6.81.33-6.82.73-6.82S7.31,6.53,7.31,10.3Z"/></g></g></svg>