<svg width="40" height="39" viewBox="0 0 40 39" fill="none" xmlns="http://www.w3.org/2000/svg">
<path d="M30.1079 21.0357L29.2683 20.9271C29.2683 20.7636 29.2683 20.588 29.2683 20.4124C29.2625 19.807 29.2746 19.1995 29.244 18.5972C29.2124 17.9776 28.9398 17.4502 28.5369 16.983C28.4684 16.9005 28.429 16.7979 28.4245 16.6908C28.4171 15.4141 28.4198 14.1379 28.4193 12.8612C28.4193 12.2283 28.0965 11.9045 27.4595 11.9045C22.4858 11.9045 17.5121 11.9045 12.5384 11.9045C11.9019 11.9045 11.5818 12.2262 11.5808 12.8628C11.5808 13.3753 11.5808 13.8879 11.5808 14.4316H11.8233C13.205 14.4316 14.5862 14.4279 15.9678 14.4316C17.1417 14.4359 18.0593 15.2016 18.2787 16.3523C18.3011 16.4818 18.3117 16.6131 18.3104 16.7446C18.3135 17.4423 18.3177 18.1395 18.3104 18.8372C18.2972 20.1556 17.2999 21.1544 15.9789 21.1612C14.5978 21.1691 13.2161 21.1612 11.8344 21.1612H11.5945C11.5887 21.2345 11.5808 21.2857 11.5808 21.3363C11.5808 21.8236 11.5776 22.3103 11.5808 22.7971C11.585 23.3434 11.9225 23.6852 12.4672 23.6873C13.4545 23.691 14.4411 23.6873 15.4278 23.6873H19.1995C19.3102 24.3987 19.7759 24.8791 20.3069 25.3606C20.2057 25.3674 20.1487 25.3748 20.096 25.3748C17.5499 25.3748 15.0038 25.3748 12.4578 25.3748C11.0096 25.3748 9.89216 24.2568 9.89164 22.8113C9.88882 19.4686 9.88882 16.1259 9.89164 12.7831C9.89164 11.3266 11.0091 10.2128 12.4704 10.2128C17.4764 10.2128 22.483 10.2128 27.4901 10.2128C28.8232 10.2128 29.8231 11.0434 30.0741 12.3544C30.0818 12.3788 30.0924 12.4022 30.1057 12.424L30.1079 21.0357ZM13.2609 17.7935C13.2599 18.1275 13.358 18.4543 13.5428 18.7325C13.7275 19.0107 13.9907 19.2278 14.299 19.3564C14.6073 19.4849 14.9467 19.5191 15.2744 19.4546C15.6021 19.39 15.9033 19.2297 16.1399 18.9939C16.3764 18.7582 16.5376 18.4575 16.6032 18.13C16.6687 17.8025 16.6356 17.4629 16.508 17.1542C16.3805 16.8456 16.1642 16.5817 15.8866 16.396C15.6089 16.2104 15.2824 16.1113 14.9485 16.1113C14.5025 16.1135 14.0753 16.2913 13.7595 16.6061C13.4436 16.921 13.2645 17.3476 13.2609 17.7935Z" fill="#2DD775"/>
<path d="M30.1079 23.4051C30.0024 23.5539 29.9175 23.7216 29.7914 23.8476C28.5402 25.1087 27.2851 26.3659 26.0261 27.6192C25.6364 28.009 25.3168 28.0084 24.9266 27.6192C23.6518 26.3448 22.3768 25.0704 21.1017 23.7959C20.9403 23.6377 20.8258 23.4589 20.8464 23.2232C20.8759 22.8878 21.1312 22.6526 21.4835 22.6484C22.0293 22.6421 22.5751 22.6484 23.1214 22.6484H23.3556C23.3593 22.5566 23.3656 22.4807 23.3661 22.4042C23.3661 21.2662 23.3661 20.128 23.3661 18.9896C23.3661 18.226 23.788 17.8014 24.5474 17.8009H26.4026C27.1541 17.8009 27.5802 18.2228 27.5802 18.9701C27.5802 20.1151 27.5802 21.26 27.5802 22.4047V22.6484H27.9009C28.3681 22.6484 28.8359 22.6642 29.3021 22.6436C29.6928 22.6262 29.9634 22.7639 30.1073 23.132L30.1079 23.4051Z" fill="#2DD775"/>
</svg>
