<svg width="40" height="39" viewBox="0 0 40 39" fill="none" xmlns="http://www.w3.org/2000/svg">
<path d="M20.4941 22.0082C18.2022 22.0082 16.2816 21.6849 15.7479 21.2488C15.711 21.2754 15.6758 21.3043 15.6424 21.3353C15.9531 21.8278 18.0055 22.2086 20.4941 22.2086C23.1963 22.2086 25.3869 21.7593 25.3869 21.2066C25.3863 21.1721 25.3778 21.1382 25.3622 21.1075C25.1148 21.6127 23.0297 22.0082 20.4941 22.0082Z" fill="#2DD775"/>
<path d="M27.6018 14.7423C27.6656 14.7485 27.7288 14.7602 27.7906 14.7771C27.8229 14.7863 27.8539 14.7994 27.8829 14.8161C27.8896 14.8199 27.896 14.8243 27.9019 14.8293L27.9098 14.8356L27.9204 14.8451C27.9351 14.8588 27.9462 14.8704 27.9583 14.8831C28.0433 14.9806 28.1025 15.0979 28.1303 15.2243C28.144 15.277 28.1519 15.3208 28.1572 15.3519C28.1572 15.3666 28.1608 15.3777 28.1624 15.3862C28.2115 15.8824 28.1798 16.6629 28.1651 16.9582C28.3196 16.9988 28.414 17.1776 28.4662 17.3801L30.5661 16.9434C30.5661 16.9434 30.5661 16.7256 28.8548 15.605C28.7119 15.5117 28.5474 15.4099 28.3676 15.3034V15.296C28.3554 15.2622 28.3375 15.2148 28.3111 15.1589C28.2818 15.0942 28.2465 15.0324 28.2057 14.9743C28.1585 14.907 28.101 14.8475 28.0353 14.7982C28.019 14.786 28 14.7728 27.9826 14.7634L27.9705 14.756L27.9541 14.747C27.9441 14.7417 27.9337 14.7371 27.923 14.7333C27.8849 14.7197 27.8452 14.7108 27.8049 14.7069C27.7379 14.7011 27.6705 14.7011 27.6034 14.7069C27.5392 14.7114 27.4753 14.7195 27.412 14.7312C27.4754 14.7314 27.5388 14.7351 27.6018 14.7423Z" fill="#2DD775"/>
<path d="M27.9046 17.0036C27.9216 16.9948 27.9393 16.987 27.9573 16.9804C27.9641 16.6365 27.9821 15.4753 27.9167 15.2132C27.8911 15.1154 27.8391 15.0266 27.7664 14.9564C25.6939 13.7962 22.477 12.2753 22.477 12.2753C22.477 12.2753 21.3253 12.8353 18.4622 13.6464C15.5992 14.4575 9.43652 15.8871 9.43652 15.8871C10.7412 16.944 15.0982 18.5313 15.0982 18.5313C15.0982 18.5313 15.0049 17.4729 15.0671 17.0062C15.1293 16.5395 15.845 15.9167 16.8723 15.6055C17.8995 15.2944 20.444 14.4559 23.0655 14.92C25.0167 15.2654 26.0224 16.7251 26.0224 16.7251L25.9291 17.9075L27.5839 17.5631C27.6055 17.3347 27.6973 17.1133 27.9046 17.0036ZM22.4575 12.8248V12.6038L27.3545 15.0386L22.4575 12.8248Z" fill="#2DD775"/>
<path d="M28.1202 17.3658C28.1202 17.3658 28.1303 17.4618 28.1434 17.6295C28.1519 17.7571 28.1666 17.9264 28.1804 18.1274L28.2104 18.1247C28.2431 18.1247 28.4704 18.197 28.463 18.2344C28.4704 18.1924 28.4748 18.1499 28.4762 18.1073C28.4931 17.7266 28.3707 16.955 27.913 17.2208C27.5475 17.4318 27.6029 17.9296 27.6614 18.2755C27.7221 18.1806 27.8471 18.1558 27.9589 18.1437C28.0084 18.1379 28.0585 18.1353 28.1081 18.1316C28.1081 17.9291 28.1134 17.7577 28.1144 17.629C28.1171 17.4618 28.1202 17.3658 28.1202 17.3658Z" fill="#2DD775"/>
<path d="M28.231 18.979C28.32 18.9984 28.4046 19.0341 28.4804 19.0845L28.4419 18.4274C28.3663 18.3732 28.2819 18.3323 28.1925 18.3067C28.1925 18.3119 28.1925 18.3161 28.1925 18.3214C28.2062 18.5208 28.2189 18.7423 28.231 18.979Z" fill="#2DD775"/>
<path d="M28.1081 18.2903C28.024 18.2774 27.9379 18.2869 27.8586 18.3179C27.7794 18.3489 27.7097 18.4004 27.6567 18.467L27.644 19.0724C27.644 19.0724 27.9077 18.9558 28.1113 18.959C28.1113 18.7312 28.1076 18.5171 28.1081 18.3262V18.2903Z" fill="#2DD775"/>
<path d="M28.4773 20.0791C28.4773 19.9235 28.5537 19.4806 28.4693 19.3408C28.4134 19.2578 28.3344 19.1931 28.2421 19.1547C28.2421 19.2026 28.2468 19.2517 28.2489 19.3007C28.2568 19.4806 28.2647 19.6657 28.2726 19.8545C28.2806 20.0432 28.2864 20.2342 28.2932 20.4256C28.3001 20.617 28.3032 20.8084 28.3085 20.9972C28.3138 21.186 28.3159 21.3711 28.3196 21.551C28.3254 21.9101 28.328 22.2455 28.327 22.5329C28.3259 22.8203 28.3217 23.0603 28.3206 23.228C28.3196 23.3957 28.3143 23.4916 28.3143 23.4916C28.3143 23.4916 28.3043 23.3957 28.2911 23.228C28.2779 23.0603 28.2584 22.8219 28.241 22.535C28.2236 22.2481 28.2041 21.9127 28.1883 21.5541C28.1804 21.3748 28.1703 21.1892 28.1645 21.0009C28.1587 20.8127 28.1508 20.6207 28.144 20.4293C28.1371 20.2378 28.1339 20.0464 28.1287 19.8576C28.1234 19.6688 28.1213 19.4837 28.1181 19.3039C28.1181 19.2427 28.1171 19.1826 28.115 19.1235C27.9905 19.113 27.8339 19.1536 27.6461 19.3013C27.5797 19.354 27.662 19.9562 27.6641 20.0369L27.7084 21.8331C27.7221 22.3889 27.7506 22.9469 27.7247 23.5001C27.7142 23.7247 27.7057 23.9589 27.7975 24.1635C27.8447 24.2559 27.8975 24.3454 27.9557 24.4314C28.2078 24.8533 28.2521 25.3601 28.29 25.8484C28.6835 24.5326 28.51 23.0993 28.4952 21.745C28.4882 21.191 28.4822 20.6356 28.4773 20.0791Z" fill="#2DD775"/>
<path d="M25.1117 16.2995C25.0642 17.1243 24.9007 20.0253 24.9007 20.1413C24.9007 20.2573 24.7288 16.8638 24.685 16.0063C24.0765 15.625 23.2142 15.2301 22.1653 15.1388C20.0179 14.9521 18.3684 15.5433 17.3411 15.7611C16.3138 15.9789 15.5649 16.5063 15.4094 16.7884C15.2538 17.0705 15.2849 17.6596 15.2849 17.6596L15.5649 21.1765C15.5649 21.1765 15.9388 20.5854 17.8062 20.4298C19.6736 20.2742 21.6965 21.4566 21.6965 21.4566C21.6965 21.4566 21.7276 21.3321 22.8166 20.8654C23.9056 20.3987 25.4007 20.7072 25.4007 20.7072L25.6823 16.7884C25.5053 16.6106 25.3145 16.4471 25.1117 16.2995ZM16.1656 16.6819C15.837 17.0927 15.6182 17.3674 15.673 18.2961C15.673 18.2961 15.5633 17.2293 15.673 16.983C15.7827 16.7367 16.2473 16.3539 16.7947 16.1624C17.1055 16.0511 17.4259 15.9686 17.7519 15.9161C17.7519 15.9161 16.4936 16.2716 16.1656 16.6819Z" fill="#2DD775"/>
</svg>
