<svg width="40" height="39" viewBox="0 0 40 39" fill="none" xmlns="http://www.w3.org/2000/svg">
<path d="M9.56625 26.2249C9.59367 25.8131 9.60053 25.398 9.65432 24.9893C9.70082 24.5723 9.78143 24.1597 9.89532 23.7558C10.1063 23.0581 10.5941 22.593 11.2596 22.3098C11.7964 22.0815 12.3401 21.8668 12.8675 21.6216C13.3949 21.3764 13.8953 21.1006 14.4364 20.8237C14.9585 22.4744 15.4837 24.1371 16.0222 25.8389C16.0638 25.7434 16.0949 25.6833 16.1171 25.62C16.2806 25.1602 16.4377 24.6977 16.607 24.2405C16.6523 24.1181 16.6254 24.0338 16.5674 23.9241C16.3924 23.5908 16.1983 23.2575 16.0881 22.901C15.9552 22.4791 16.1492 22.1796 16.5706 22.0319C16.9266 21.9045 17.3186 21.9235 17.6606 22.0846C17.8147 22.1476 17.9381 22.2682 18.0044 22.4208C18.0707 22.5735 18.0747 22.746 18.0156 22.9015C17.8953 23.2564 17.7097 23.5913 17.5336 23.9246C17.4745 24.0364 17.4523 24.1202 17.4972 24.241C17.6891 24.7615 17.87 25.2867 18.0741 25.8637C18.6157 24.1471 19.143 22.4823 19.6625 20.8369C20.3924 21.1934 21.1053 21.5515 21.8247 21.8916C22.1986 22.0672 22.5946 22.1954 22.969 22.3699C23.8655 22.7866 24.2953 23.5517 24.3834 24.4846C24.4815 25.5299 24.4862 26.5846 24.5305 27.6351C24.5261 27.6623 24.5183 27.6889 24.5073 27.7142H24.2305C19.4357 27.7142 14.6408 27.7142 9.84575 27.7142C9.75188 27.7142 9.65748 27.7263 9.56361 27.7332L9.56625 26.2249Z" fill="#2DD775"/>
<path d="M13.5135 15.4473C13.4608 15.1341 13.3912 14.8229 13.3516 14.5086C13.2156 13.4165 13.6095 12.5089 14.3599 11.7421C14.8984 11.1926 15.5106 10.7449 16.2732 10.5556C17.5067 10.2492 18.8409 10.6642 19.557 11.644C19.5914 11.6923 19.6395 11.7291 19.6952 11.7495C20.1535 11.8893 20.4145 12.221 20.5643 12.6502C20.7905 13.2957 20.7626 13.9602 20.6745 14.6247C20.6381 14.8989 20.5775 15.1705 20.5279 15.4436C20.8575 15.5159 20.9556 15.6092 20.9529 15.9657C20.9487 16.6102 20.7452 17.2034 20.4356 17.7635C20.4287 17.7751 20.4219 17.7909 20.4113 17.7957C20.116 17.918 20.1318 18.2117 20.048 18.4506C19.6852 19.4837 19.0508 20.2906 18.034 20.7314C17.0009 21.1797 16.0522 20.9424 15.209 20.2442C14.5458 19.7014 14.0887 18.9478 13.9138 18.1089C13.9017 18.0535 13.879 17.975 13.8384 17.956C13.5805 17.8368 13.4866 17.591 13.4102 17.3606C13.2779 16.9626 13.1734 16.5559 13.0974 16.1434C13.0257 15.7347 13.1607 15.5444 13.5135 15.4473Z" fill="#2DD775"/>
<path d="M26.5561 10.3937C27.0785 10.394 27.5954 10.4999 28.0759 10.7048C28.5564 10.9097 28.9905 11.2096 29.3524 11.5863C29.7142 11.9631 29.9962 12.409 30.1816 12.8974C30.367 13.3857 30.4518 13.9065 30.4311 14.4285C30.3515 16.6091 28.4509 18.3082 26.265 18.1474C25.7279 18.1131 25.205 17.9614 24.733 17.7028C24.6196 17.6401 24.539 17.6337 24.4245 17.7118C24.0148 17.9998 23.5133 18.1265 23.0159 18.0678C22.9437 18.0593 22.8783 17.9876 22.8103 17.9454C22.8509 17.8821 22.8773 17.7946 22.9347 17.7593C23.2216 17.5837 23.422 17.3347 23.5955 17.0531C23.6746 16.925 23.6482 16.8422 23.5591 16.7367C22.8635 15.8929 22.5619 14.9115 22.7011 13.8336C22.8978 12.3069 23.7379 11.2427 25.1623 10.6515C25.6054 10.4749 26.0791 10.3872 26.5561 10.3937ZM26.5598 14.7707C26.693 14.7661 26.8191 14.7097 26.9114 14.6136C27.0038 14.5176 27.0551 14.3893 27.0544 14.256C27.0544 14.0045 26.8145 13.7661 26.5561 13.7645C26.4234 13.7703 26.2976 13.8256 26.2036 13.9195C26.1096 14.0134 26.0542 14.1391 26.0482 14.2719C26.0525 14.4053 26.108 14.5319 26.2033 14.6253C26.2986 14.7188 26.4263 14.7718 26.5598 14.7734V14.7707ZM28.7251 14.2766C28.7233 14.1435 28.6705 14.0161 28.5776 13.9207C28.4847 13.8254 28.3587 13.7693 28.2257 13.764C28.0926 13.7693 27.9664 13.8247 27.8724 13.9192C27.7785 14.0137 27.7239 14.1403 27.7194 14.2734C27.7246 14.403 27.778 14.5259 27.8693 14.6179C27.9606 14.71 28.083 14.7645 28.2125 14.7707C28.3454 14.7726 28.4737 14.7221 28.5696 14.6301C28.6655 14.5381 28.7214 14.4121 28.7251 14.2792V14.2766ZM25.3817 14.265C25.3761 14.1319 25.3199 14.006 25.2247 13.9129C25.1294 13.8198 25.0022 13.7666 24.8691 13.764C24.7398 13.7731 24.6182 13.8289 24.527 13.921C24.4358 14.013 24.3812 14.1351 24.3734 14.2645C24.3766 14.3975 24.4308 14.5243 24.5248 14.6185C24.6188 14.7128 24.7455 14.7673 24.8786 14.7707C25.0115 14.7692 25.1386 14.7157 25.2326 14.6217C25.3267 14.5277 25.3802 14.4006 25.3817 14.2676V14.265Z" fill="#2DD775"/>
</svg>
