<svg width="40" height="39" viewBox="0 0 40 39" fill="none" xmlns="http://www.w3.org/2000/svg">
<path d="M17.4434 17.9881L17.465 16.2637L20.0042 15.0508L23.1209 16.637L23.1061 17.8078L19.942 19.0207L17.4434 17.9881ZM20.0111 14.033L20.5105 13.7988L20.0227 13.5504L19.5238 13.7893L20.0111 14.033ZM24.5126 26.0757L24.6181 17.6195L24.0111 17.8484L23.9056 26.3051L24.5126 26.0757ZM24.0338 16.0448L24.0158 17.4555L24.6233 17.2229L24.6397 15.8987L21.533 14.3167L21.0479 14.5487L24.0338 16.0448ZM18.4965 14.2813L15.9652 15.4906L15.9415 17.368L16.5421 17.6169L16.5669 15.6493L18.9685 14.5223L18.4965 14.2813ZM16.4309 26.4575L16.5363 18.0008L15.9357 17.7566L15.8302 26.2133L16.4309 26.4575ZM21.0526 13.0579L21.5546 13.3089L24.4192 11.9641L23.8212 11.7342L21.0526 13.0579ZM15.6519 11.8523L18.4875 13.2704L19.0001 13.0294L16.2621 11.6351L15.6519 11.8523ZM15.0344 17.3896L12.2811 16.27L12.1756 24.7262L14.9295 25.8463L15.0344 17.3896ZM11.2438 13.4218L11.219 15.4162L15.0397 16.9946L15.0661 14.8746L17.4555 13.7535L14.5181 12.2563L11.2438 13.4218ZM17.3326 26.824L19.8349 27.8444L22.9954 26.6505L23.1009 18.1938L19.9409 19.3856L17.4381 18.3673L17.3326 26.824ZM22.689 11.2986L20.0522 10.285L17.3986 11.2327L20.0295 12.5511L22.689 11.2986ZM25.4223 25.7313L27.5713 24.9197L27.6767 16.463L25.5278 17.2746L25.4223 25.7313ZM25.533 16.8754L28.7562 15.6372L28.7815 13.6432L25.5499 12.4003L22.5767 13.821L25.5531 15.3097L25.533 16.8754Z" fill="#2DD775"/>
</svg>
