<svg width="40" height="39" viewBox="0 0 40 39" fill="none" xmlns="http://www.w3.org/2000/svg">
<path d="M13.6707 13.8136V11.1003C13.6707 10.4148 14.0488 10.0366 14.7312 10.0366H17.7767C17.7767 9.9375 17.7767 9.84838 17.7767 9.75926C17.7835 9.52617 17.898 9.40804 18.1326 9.40646C18.573 9.40276 19.0133 9.40646 19.451 9.40646C19.807 8.60013 20.4003 8.13342 21.2868 8.14818C22.139 8.16242 22.7106 8.6228 23.0486 9.40646H24.2431C24.6455 9.40646 24.7209 9.4824 24.7251 9.89215C24.7251 9.93118 24.7251 9.9702 24.7251 10.0377H24.944C25.8981 10.0377 26.8521 10.0377 27.8059 10.0377C28.4388 10.0377 28.8332 10.4295 28.8332 11.0555C28.8332 16.0626 28.8332 21.0695 28.8332 26.0762C28.8332 26.6932 28.4372 27.0919 27.8233 27.0919C23.4417 27.0919 19.0599 27.0919 14.6779 27.0919C14.0757 27.0919 13.6759 26.6906 13.6759 26.0899C13.6759 25.1691 13.6759 24.2479 13.6759 23.3155C13.4028 23.2628 13.3474 23.0761 13.3595 22.8324C13.3711 22.5434 13.3659 22.2523 13.3595 21.9639C13.3486 21.8984 13.3289 21.8347 13.301 21.7746C13.2409 21.8014 13.1676 21.8152 13.1227 21.8584C12.8955 22.0773 12.6761 22.3051 12.4519 22.5271C12.2468 22.7296 12.0944 22.7312 11.8924 22.5308C11.4811 22.123 11.0715 21.7136 10.6637 21.3026C10.4527 21.0916 10.4575 20.9466 10.6721 20.7304C10.8868 20.5142 11.1125 20.2958 11.3266 20.0733C11.3709 20.0274 11.3883 19.9562 11.4178 19.8972C11.3561 19.874 11.2949 19.8323 11.2332 19.8307C10.911 19.8244 10.5883 19.8307 10.2661 19.827C10.0061 19.827 9.89005 19.7121 9.88899 19.4579C9.88653 18.8662 9.88653 18.2741 9.88899 17.6817C9.88899 17.4212 10.0034 17.3068 10.2581 17.3047C10.5872 17.3015 10.9158 17.3047 11.2448 17.301C11.3013 17.301 11.3572 17.2614 11.4136 17.2403C11.3904 17.185 11.3814 17.1164 11.3424 17.0769C11.1188 16.8448 10.8868 16.6207 10.66 16.3913C10.4575 16.1867 10.4559 16.0364 10.66 15.8328C11.0675 15.4218 11.4769 15.0124 11.8882 14.6046C12.0891 14.4058 12.2484 14.4047 12.4498 14.6046C12.6798 14.8308 12.9034 15.0634 13.1354 15.287C13.176 15.326 13.2409 15.3366 13.2989 15.3598C13.32 15.3039 13.359 15.248 13.3601 15.1916C13.3659 14.8889 13.3711 14.5862 13.3601 14.284C13.3421 14.0393 13.4075 13.8637 13.6707 13.8136ZM24.733 11.9415C24.7304 11.9858 24.7272 12.0174 24.7267 12.0496C24.7167 12.5068 24.6581 12.5632 24.193 12.5632H18.2703C18.2112 12.5632 18.1516 12.5658 18.0926 12.5632C17.9048 12.549 17.7904 12.4361 17.7788 12.2468C17.7724 12.145 17.7788 12.0427 17.7788 11.9409H15.5755V13.8167C15.8054 13.8695 15.8919 14.0124 15.884 14.2355C15.875 14.5382 15.8777 14.8409 15.884 15.1436C15.8947 15.2153 15.9147 15.2853 15.9436 15.3519C16.0079 15.3208 16.0854 15.3034 16.135 15.2559C16.3581 15.0423 16.5727 14.8192 16.7921 14.6014C16.9967 14.3995 17.1491 14.3968 17.3516 14.5972C17.763 15.0047 18.1724 15.4143 18.5798 15.826C18.7908 16.0369 18.786 16.183 18.5714 16.3987C18.3488 16.6233 18.1221 16.8427 17.9022 17.0695C17.8632 17.1101 17.8494 17.1749 17.8262 17.2319C17.879 17.2551 17.9359 17.2962 17.9913 17.2973C18.3204 17.3036 18.6489 17.2973 18.978 17.3015C19.2374 17.3015 19.3535 17.417 19.3545 17.6738C19.3573 18.2662 19.3573 18.8584 19.3545 19.4505C19.3545 19.7089 19.2385 19.8244 18.9817 19.8265C18.6526 19.8297 18.3235 19.8265 17.995 19.8302C17.9386 19.8302 17.8832 19.8708 17.8273 19.8924C17.851 19.9451 17.861 20.0153 17.9001 20.0554C18.1242 20.2874 18.3562 20.511 18.583 20.7409C18.7844 20.9455 18.785 21.0958 18.583 21.2999C18.1797 21.7067 17.7754 22.111 17.3701 22.5128C17.1517 22.7296 16.9978 22.7285 16.78 22.5128C16.5622 22.2972 16.3459 22.0725 16.1229 21.8584C16.0786 21.8157 16.0053 21.803 15.9457 21.7761C15.9169 21.8357 15.8966 21.8991 15.8856 21.9644C15.8792 22.2608 15.8745 22.5571 15.8856 22.8525C15.8945 23.0924 15.8276 23.2664 15.5765 23.3123V25.1855H24.4092V24.9608C24.4092 24.328 24.4092 23.6952 24.4092 23.066C24.4092 22.7818 24.5194 22.6716 24.8026 22.6711C25.4407 22.6711 26.0794 22.6711 26.7175 22.6711H26.9284V11.9415H24.733ZM24.733 11.2997H24.9614C25.6997 11.2997 26.4353 11.2997 27.1721 11.2997C27.4547 11.2997 27.5655 11.4109 27.5655 11.6952C27.5655 15.432 27.5635 19.1689 27.5597 22.9057C27.5532 23.0405 27.4995 23.1686 27.4078 23.2675C26.6157 24.0761 25.8157 24.8761 25.0078 25.6675C24.9094 25.7598 24.7813 25.8142 24.6465 25.821C21.5415 25.8294 18.4362 25.8315 15.3308 25.8273C15.0397 25.8273 14.9332 25.716 14.9326 25.4165C14.9326 24.7836 14.9326 24.1521 14.9326 23.5217V23.3165H14.2998C14.2998 24.2331 14.2998 25.1343 14.2998 26.0356C14.2998 26.3578 14.4016 26.4575 14.7249 26.4575H27.7738C28.0965 26.4575 28.1993 26.3557 28.1993 26.0356V11.0956C28.1993 10.7707 28.0981 10.6684 27.7775 10.6684C26.8233 10.6684 25.8693 10.6684 24.9155 10.6684H24.733V11.2997ZM11.2812 16.1223C11.5122 16.3512 11.7411 16.5775 11.9668 16.8047C12.1608 16.9988 12.1735 17.0842 12.0596 17.3279C12.0121 17.4291 11.9699 17.5325 11.9309 17.6369C11.8407 17.8779 11.7669 17.9312 11.509 17.9322H10.526V19.1979H11.4848C11.7759 19.1979 11.8376 19.2422 11.9367 19.5074C11.9736 19.6061 12.0148 19.7031 12.0591 19.798C12.1751 20.0443 12.1645 20.1303 11.9715 20.3222C11.74 20.5542 11.5064 20.7842 11.3018 20.9877L12.1925 21.8853C12.4061 21.6701 12.6323 21.4418 12.8596 21.214C13.0542 21.0199 13.138 21.0072 13.3827 21.1217C13.4835 21.1691 13.5873 21.2113 13.6918 21.2504C13.9328 21.3405 13.9855 21.4133 13.9866 21.6722C13.9866 21.9992 13.9866 22.3256 13.9866 22.6547H15.2522C15.2522 22.313 15.2585 21.9844 15.2522 21.6564C15.2464 21.4386 15.3397 21.3115 15.5449 21.2482C15.6508 21.2132 15.754 21.1707 15.8539 21.1212C16.1013 21.0057 16.1862 21.0157 16.3781 21.2092C16.6096 21.4407 16.8396 21.6744 17.0436 21.88L17.9401 20.9835C17.7292 20.7726 17.5003 20.5469 17.2725 20.3196C17.0779 20.125 17.0653 20.0422 17.1797 19.797C17.2266 19.6957 17.2693 19.5923 17.3084 19.4879C17.3991 19.2453 17.4708 19.1931 17.7303 19.1926H18.7106V17.9301C18.3694 17.9301 18.0409 17.9238 17.7134 17.9301C17.4961 17.9359 17.3674 17.8431 17.3042 17.638C17.2689 17.5321 17.2267 17.4286 17.1776 17.3284C17.0616 17.08 17.0721 16.9967 17.2651 16.8047C17.4966 16.5732 17.7303 16.3433 17.9375 16.1382L17.041 15.2417C16.8301 15.4526 16.6038 15.682 16.3765 15.9093C16.1819 16.1034 16.0965 16.1165 15.8534 16.0026C15.7527 15.9552 15.6493 15.913 15.5444 15.874C15.3028 15.7838 15.2496 15.7115 15.249 15.4521C15.249 15.1256 15.249 14.7987 15.249 14.4686H13.9834C13.9834 14.8103 13.9771 15.1383 13.9834 15.4663C13.9892 15.6836 13.8958 15.8117 13.6907 15.875C13.5848 15.9101 13.4816 15.9526 13.3817 16.0021C13.1349 16.1181 13.0494 16.1076 12.8575 15.9146C12.6254 15.6836 12.3939 15.4515 12.1661 15.2237L11.2812 16.1223ZM18.4179 11.9183H24.0838V10.0361H22.9152C22.6178 10.0361 22.5519 9.98602 22.4696 9.70125C22.3953 9.43512 22.2359 9.20064 22.0158 9.03359C21.7957 8.86655 21.5269 8.77612 21.2506 8.77612C20.9743 8.77612 20.7056 8.86655 20.4855 9.03359C20.2654 9.20064 20.106 9.43512 20.0316 9.70125C19.951 9.98391 19.8829 10.0351 19.5855 10.0356H18.4179V11.9183ZM14.9342 13.8167C14.9342 13.1064 14.9342 12.4103 14.9342 11.7147C14.9342 11.4046 15.0397 11.3002 15.3477 11.3002C16.0838 11.3002 16.8202 11.3002 17.5568 11.3002H17.7608V10.6674C16.7325 10.6674 15.7205 10.6674 14.708 10.6674C14.4105 10.6674 14.303 10.7728 14.303 11.0703C14.303 11.9316 14.303 12.793 14.303 13.6543V13.8167H14.9342ZM25.0452 24.6734L26.4063 23.3165H25.0452V24.6734Z" fill="#2DD775"/>
<path d="M20.2832 23.933H17.2831C17.224 23.9367 17.1647 23.9351 17.1059 23.9283C16.9366 23.8961 16.8332 23.7922 16.8332 23.6171C16.8332 23.4421 16.9361 23.3382 17.1059 23.3065C17.1647 23.2997 17.224 23.2981 17.2831 23.3018H23.3229C23.3821 23.2981 23.4416 23.2996 23.5006 23.3065C23.6704 23.3382 23.7732 23.4426 23.7732 23.6171C23.7732 23.7917 23.6678 23.8961 23.5006 23.9283C23.4418 23.9351 23.3825 23.9367 23.3234 23.933H20.2832Z" fill="#2DD775"/>
<path d="M23.7579 14.458C23.2643 14.458 22.7713 14.458 22.2777 14.458C22.0287 14.458 21.8842 14.3399 21.8842 14.1416C21.8842 13.9433 22.0282 13.8252 22.2771 13.8252C23.277 13.8252 24.277 13.8252 25.2773 13.8252C25.5262 13.8252 25.6707 13.9433 25.6707 14.1416C25.6707 14.3399 25.5262 14.458 25.2778 14.458C24.771 14.4591 24.2642 14.458 23.7579 14.458Z" fill="#2DD775"/>
<path d="M23.7722 15.7216C23.28 15.7216 22.7866 15.7216 22.2919 15.7216C22.0282 15.7216 21.8806 15.6034 21.8842 15.4009C21.8879 15.1984 22.0309 15.0908 22.2824 15.0908C23.2759 15.0908 24.2693 15.0908 25.2625 15.0908C25.5262 15.0908 25.6744 15.209 25.6707 15.4115C25.667 15.614 25.5214 15.7221 25.2525 15.7221C24.7596 15.7224 24.2661 15.7223 23.7722 15.7216Z" fill="#2DD775"/>
<path d="M23.7975 16.9846C24.2897 16.9846 24.7831 16.9846 25.2778 16.9846C25.5267 16.9846 25.6712 17.1032 25.6707 17.301C25.6701 17.4987 25.5256 17.6174 25.2773 17.6174C24.2774 17.6174 23.2773 17.6174 22.2771 17.6174C22.0282 17.6174 21.8842 17.4987 21.8842 17.301C21.8842 17.1032 22.0282 16.9846 22.2777 16.9846C22.7839 16.9839 23.2905 16.9839 23.7975 16.9846Z" fill="#2DD775"/>
<path d="M23.7601 18.8794C23.2664 18.8794 22.7734 18.8794 22.2798 18.8794C22.0298 18.8794 21.8858 18.7628 21.8842 18.5661C21.8827 18.3694 22.0266 18.2497 22.275 18.2497C23.2749 18.2497 24.2749 18.2497 25.2751 18.2497C25.5251 18.2497 25.6691 18.3657 25.6707 18.5624C25.6722 18.7591 25.5272 18.8788 25.2799 18.8788C24.7731 18.8794 24.2668 18.8794 23.7601 18.8794Z" fill="#2DD775"/>
<path d="M23.7775 20.7747C23.2775 20.7747 22.7755 20.7747 22.2777 20.7747C22.0287 20.7747 21.8842 20.6566 21.8842 20.4583C21.8842 20.26 22.0282 20.1419 22.2771 20.1419C23.277 20.1419 24.277 20.1419 25.2773 20.1419C25.5262 20.1419 25.6707 20.26 25.6707 20.4583C25.6707 20.6566 25.5262 20.7747 25.2778 20.7747C24.7779 20.7779 24.2774 20.7747 23.7775 20.7747Z" fill="#2DD775"/>
<path d="M23.7674 22.0382C23.2675 22.0382 22.7655 22.0382 22.2676 22.0382C22.024 22.0382 21.8779 21.9106 21.8842 21.7129C21.8906 21.5151 22.0298 21.408 22.2671 21.4075C23.2737 21.4075 24.2804 21.4075 25.2873 21.4075C25.5304 21.4075 25.6775 21.5357 25.6707 21.7324C25.6638 21.9291 25.523 22.0372 25.2873 22.0382C24.781 22.0393 24.2742 22.0382 23.7674 22.0382Z" fill="#2DD775"/>
<path d="M20.7847 13.8268C20.8243 13.8268 20.8638 13.8268 20.9028 13.8268C21.1138 13.8352 21.2541 13.9644 21.2493 14.1495C21.2446 14.3346 21.1106 14.4496 20.9071 14.4575C20.8221 14.4607 20.7362 14.4607 20.6508 14.4575C20.4398 14.4496 20.3001 14.3204 20.3048 14.1342C20.3096 13.956 20.4425 13.8357 20.6465 13.8268C20.6924 13.8252 20.7388 13.8268 20.7847 13.8268Z" fill="#2DD775"/>
<path d="M20.7778 15.0898H20.8564C21.1043 15.093 21.2493 15.2106 21.2477 15.4062C21.2461 15.6019 21.1011 15.7173 20.8522 15.7194C20.7794 15.7194 20.7072 15.7226 20.6349 15.7194C20.434 15.7089 20.3022 15.5813 20.3032 15.403C20.3043 15.2248 20.4367 15.1003 20.6397 15.0903C20.6871 15.0882 20.733 15.0903 20.7778 15.0898Z" fill="#2DD775"/>
<path d="M20.7594 17.6137C20.7067 17.6163 20.6539 17.6163 20.6012 17.6137C20.5217 17.6087 20.447 17.5738 20.3921 17.5162C20.3371 17.4585 20.306 17.3822 20.3048 17.3026C20.303 17.2222 20.3326 17.1442 20.3872 17.0852C20.4418 17.0262 20.5172 16.9907 20.5975 16.9862C20.7092 16.9782 20.8212 16.9782 20.9329 16.9862C21.1212 16.9967 21.2493 17.1259 21.2493 17.2978C21.2493 17.4697 21.1233 17.6 20.9366 17.6142C20.878 17.619 20.8185 17.6142 20.7594 17.6142V17.6137Z" fill="#2DD775"/>
<path d="M20.7594 18.8794C20.7067 18.8794 20.6539 18.8841 20.6012 18.8794C20.5216 18.8743 20.4469 18.8394 20.3919 18.7816C20.3369 18.7238 20.3058 18.6474 20.3048 18.5677C20.3037 18.4877 20.3336 18.4105 20.3881 18.352C20.4426 18.2935 20.5177 18.2584 20.5975 18.2539C20.7091 18.246 20.8212 18.246 20.9329 18.2539C21.1212 18.2645 21.2493 18.3931 21.2493 18.5656C21.2493 18.738 21.1233 18.8672 20.9366 18.882C20.878 18.8862 20.8185 18.882 20.7594 18.882V18.8794Z" fill="#2DD775"/>
<path d="M20.7662 20.772C20.7072 20.7757 20.6481 20.7757 20.5891 20.772C20.5094 20.7652 20.4354 20.7277 20.3827 20.6676C20.3301 20.6074 20.3027 20.5292 20.3064 20.4493C20.306 20.3723 20.3354 20.298 20.3883 20.2421C20.4412 20.1861 20.5137 20.1526 20.5906 20.1487C20.6959 20.1395 20.8016 20.1383 20.9071 20.145C21.1111 20.1519 21.2451 20.2726 21.2504 20.4509C21.2556 20.6291 21.1169 20.7673 20.9055 20.7752C20.8596 20.7752 20.8132 20.7752 20.7673 20.7752L20.7662 20.772Z" fill="#2DD775"/>
<path d="M20.772 22.0377C20.7262 22.0377 20.6798 22.0377 20.6339 22.0377C20.434 22.0261 20.3022 21.8969 20.3048 21.7176C20.3074 21.5383 20.4409 21.416 20.6439 21.408C20.7357 21.4044 20.8279 21.4038 20.9197 21.408C21.1196 21.4181 21.2519 21.5483 21.2493 21.7276C21.2461 21.8985 21.118 22.0245 20.9297 22.0377C20.8775 22.0403 20.8248 22.0377 20.772 22.0377Z" fill="#2DD775"/>
<path d="M12.4076 18.5672C12.407 18.1289 12.5367 17.7003 12.7802 17.3359C13.0237 16.9715 13.3701 16.6877 13.7752 16.5205C14.1804 16.3534 14.6261 16.3104 15.0557 16.3971C15.4853 16.4838 15.8795 16.6963 16.1881 17.0075C16.4967 17.3187 16.7058 17.7146 16.7889 18.145C16.872 18.5753 16.8253 19.0206 16.6548 19.4244C16.4842 19.8281 16.1975 20.172 15.8311 20.4125C15.4646 20.6529 15.035 20.779 14.5967 20.7747C14.015 20.7679 13.4594 20.5326 13.0498 20.1195C12.6402 19.7065 12.4095 19.1489 12.4076 18.5672ZM16.1967 18.5672C16.1969 18.255 16.1046 17.9497 15.9313 17.69C15.7581 17.4303 15.5118 17.2278 15.2235 17.108C14.9352 16.9883 14.6178 16.9567 14.3116 17.0172C14.0053 17.0777 13.7239 17.2277 13.5028 17.4482C13.2818 17.6686 13.1311 17.9497 13.0697 18.2558C13.0083 18.5619 13.0391 18.8793 13.1581 19.1679C13.2771 19.4565 13.4789 19.7034 13.7382 19.8773C13.9975 20.0512 14.3024 20.1444 14.6146 20.145C15.0342 20.145 15.4366 19.9783 15.7333 19.6817C16.03 19.385 16.1967 18.9825 16.1967 18.563V18.5672Z" fill="#2DD775"/>
<path d="M14.2782 18.7739C14.6062 18.4454 14.8883 18.1606 15.1721 17.8774C15.2923 17.7577 15.432 17.7239 15.5834 17.8136C15.6424 17.8451 15.6883 17.8965 15.713 17.9587C15.7377 18.0209 15.7396 18.0898 15.7184 18.1532C15.6931 18.2272 15.6502 18.294 15.5934 18.3478C15.257 18.6902 14.918 19.0298 14.5767 19.3666C14.3805 19.5607 14.2276 19.5607 14.0324 19.3709C13.9006 19.2422 13.7688 19.114 13.6432 18.9796C13.5077 18.8345 13.5072 18.6442 13.6327 18.5208C13.7582 18.3974 13.946 18.4005 14.091 18.5382C14.1586 18.6124 14.2212 18.6912 14.2782 18.7739Z" fill="#2DD775"/>
</svg>
