<svg id="Layer_1" data-name="Layer 1" xmlns="http://www.w3.org/2000/svg" viewBox="0 0 40 40"><defs><style>.cls-1{fill:#2dd775;}</style></defs><path class="cls-1" d="M8.18,12.09V6.46a2,2,0,0,1,2.2-2.21h6.33V3.67a.66.66,0,0,1,.74-.73h2.74a4,4,0,0,1,7.47,0h2.48c.84,0,1,.15,1,1v.3h6.4a2,2,0,0,1,2.13,2.11V37.57a2,2,0,0,1-2.1,2.11H10.27A2,2,0,0,1,8.19,37.6V31.83c-.57-.11-.68-.5-.66-1s0-1.21,0-1.81a1.46,1.46,0,0,0-.12-.39,1.59,1.59,0,0,0-.37.18c-.47.45-.93.92-1.39,1.38s-.74.43-1.16,0L1.93,27.65c-.43-.44-.42-.74,0-1.19s.92-.9,1.36-1.36a1.62,1.62,0,0,0,.19-.37,1.61,1.61,0,0,0-.38-.14c-.67,0-1.34,0-2,0s-.78-.24-.79-.77V20.13c0-.54.24-.78.77-.78H3.14a1,1,0,0,0,.35-.13,1.17,1.17,0,0,0-.15-.34c-.46-.48-.94-.95-1.41-1.42s-.43-.74,0-1.16Q3.19,15,4.48,13.74a.69.69,0,0,1,1.16,0c.48.47,1,.95,1.43,1.41a.88.88,0,0,0,.34.15A1.58,1.58,0,0,0,7.54,15c0-.63,0-1.26,0-1.89S7.63,12.2,8.18,12.09Zm23-3.89c0,.1,0,.16,0,.23,0,1-.14,1.07-1.11,1.07H17.37a.67.67,0,0,1-.66-.66c0-.21,0-.43,0-.64H12.14v3.9a.76.76,0,0,1,.64.87c0,.63,0,1.26,0,1.89a1.73,1.73,0,0,0,.12.43,1.5,1.5,0,0,0,.4-.2c.46-.44.91-.91,1.36-1.36s.75-.43,1.17,0l2.55,2.55c.44.44.43.74,0,1.19L17,18.86a1.13,1.13,0,0,0-.16.33,1,1,0,0,0,.35.14h2.05c.54,0,.78.24.78.77V23.8c0,.54-.24.78-.78.78H17.16a1.19,1.19,0,0,0-.34.13,1,1,0,0,0,.15.34c.46.48.94,1,1.42,1.42a.71.71,0,0,1,0,1.17l-2.52,2.51c-.46.46-.78.45-1.23,0s-.9-.91-1.37-1.35a1.35,1.35,0,0,0-.36-.18,1.44,1.44,0,0,0-.13.4c0,.61,0,1.23,0,1.84s-.12.86-.64,1v3.89H30.49V31.31c0-.59.23-.82.82-.82h4.41V8.2Zm0-1.33h5.07c.59,0,.82.23.82.82q0,11.64,0,23.29a1.15,1.15,0,0,1-.31.75q-2.47,2.52-5,5A1.22,1.22,0,0,1,31,37q-9.68,0-19.35,0c-.61,0-.83-.23-.83-.85V31.83H9.49v5.65c0,.67.21.88.88.88H37.48c.67,0,.88-.21.88-.88v-31c0-.68-.21-.89-.87-.89H31.16Zm-27.94,10c.48.47.95.94,1.42,1.42s.43.58.19,1.08c-.1.21-.18.43-.26.65-.19.5-.34.61-.88.61h-2v2.63h2c.6,0,.73.09.94.64a6.5,6.5,0,0,0,.25.61c.24.51.22.69-.18,1.08s-1,1-1.39,1.39l1.85,1.86L6.5,27.47c.4-.41.57-.43,1.08-.2.21.1.43.19.64.27.5.19.61.34.62.88v2h2.63c0-.71,0-1.39,0-2.07a.76.76,0,0,1,.6-.85,5.24,5.24,0,0,0,.65-.27c.51-.24.69-.22,1.08.19l1.39,1.39L17.05,27l-1.39-1.38c-.4-.41-.43-.58-.19-1.09.1-.21.19-.42.27-.64.19-.5.33-.61.87-.61h2V20.64c-.71,0-1.39,0-2.07,0a.77.77,0,0,1-.85-.6,5.18,5.18,0,0,0-.26-.65c-.25-.51-.22-.68.18-1.08L17,16.92l-1.86-1.86L13.8,16.45a.75.75,0,0,1-1.09.19,6.14,6.14,0,0,0-.64-.27c-.5-.18-.61-.33-.61-.87V13.45H8.83c0,.71,0,1.39,0,2.08a.78.78,0,0,1-.61.85,5,5,0,0,0-.64.26c-.51.24-.69.22-1.09-.18L5.05,15ZM18,8.16H29.81V4.25H27.39c-.62,0-.76-.11-.93-.7a2.63,2.63,0,0,0-5.07,0c-.16.59-.3.69-.92.69H18ZM10.81,12.1V7.73c0-.64.21-.86.85-.86h5V5.56H10.34c-.62,0-.85.22-.85.83V12.1Zm21,22.55,2.83-2.82H31.81Z"/><path class="cls-1" d="M21.92,33.12h-6.6a.63.63,0,0,1-.57-.65.63.63,0,0,1,.57-.65H28.6a.66.66,0,0,1,0,1.3H21.92Z"/><path class="cls-1" d="M29.14,13.43H26.06c-.52,0-.82-.24-.82-.66s.3-.65.82-.65h6.23c.52,0,.82.24.82.65s-.3.66-.82.66Z"/><path class="cls-1" d="M29.17,16.06H26.09c-.55,0-.85-.25-.85-.67s.31-.64.83-.64h6.19c.55,0,.86.24.85.66s-.31.65-.87.65Z"/><path class="cls-1" d="M29.22,18.68h3.07c.52,0,.82.25.82.66s-.3.65-.82.65H26.06c-.52,0-.82-.24-.82-.65s.3-.66.82-.66Z"/><path class="cls-1" d="M29.14,22.62H26.07c-.52,0-.82-.25-.83-.65s.3-.66.82-.66h6.23c.52,0,.82.24.82.65s-.3.66-.81.66Z"/><path class="cls-1" d="M29.18,26.55H26.06c-.52,0-.82-.24-.82-.65s.3-.66.82-.66h6.23c.52,0,.82.24.82.66s-.3.65-.82.65Z"/><path class="cls-1" d="M29.16,29.18H26c-.51,0-.81-.27-.8-.68s.31-.63.8-.63h6.27c.51,0,.81.26.8.67s-.31.64-.8.64Z"/><path class="cls-1" d="M23,12.12h.24a.67.67,0,0,1,.72.67.65.65,0,0,1-.71.64h-.53a.66.66,0,1,1,0-1.31Z"/><path class="cls-1" d="M23,14.74h.16c.51,0,.81.25.81.66s-.3.65-.82.65h-.45a.66.66,0,0,1-.69-.66.67.67,0,0,1,.7-.65Z"/><path class="cls-1" d="M22.91,20h-.33a.67.67,0,0,1-.62-.65.64.64,0,0,1,.61-.66h.7a.65.65,0,0,1,.65.65.66.66,0,0,1-.65.66c-.12,0-.24,0-.36,0Z"/><path class="cls-1" d="M22.91,22.62h-.33A.68.68,0,0,1,22,22a.65.65,0,0,1,.61-.65,4.09,4.09,0,0,1,.7,0,.64.64,0,0,1,.65.64.66.66,0,0,1-.65.66Z"/><path class="cls-1" d="M22.92,26.55h-.37a.64.64,0,0,1-.58-.67.62.62,0,0,1,.59-.63,3.53,3.53,0,0,1,.65,0,.66.66,0,0,1,.72.63.68.68,0,0,1-.72.68h-.29Z"/><path class="cls-1" d="M22.93,29.18h-.28a.66.66,0,1,1,0-1.31,5.42,5.42,0,0,1,.57,0,.65.65,0,0,1,.68.66.66.66,0,0,1-.66.65Z"/><path class="cls-1" d="M5.56,22a4.59,4.59,0,1,1,4.6,4.58H10.1A4.59,4.59,0,0,1,5.56,22Zm7.87,0a3.28,3.28,0,1,0-3.29,3.28A3.28,3.28,0,0,0,13.43,22h0Z"/><path class="cls-1" d="M9.44,22.4l1.86-1.87a.66.66,0,0,1,.85-.13.58.58,0,0,1,.28.71,1,1,0,0,1-.26.4c-.69.71-1.4,1.42-2.11,2.12a.69.69,0,0,1-1.13,0c-.27-.27-.55-.54-.81-.82a.65.65,0,1,1,.93-.91A4.66,4.66,0,0,1,9.44,22.4Z"/></svg>