<svg width="16" height="11" viewBox="0 0 16 11" fill="none" xmlns="http://www.w3.org/2000/svg">
<path d="M7.03757 0.958068C6.9531 0.915627 6.85852 0.897399 6.76433 0.905404C6.67013 0.913409 6.57999 0.947334 6.50389 1.00342L0.38655 5.51918C0.322313 5.56675 0.27012 5.62872 0.234156 5.7001C0.198192 5.77149 0.179459 5.85031 0.179459 5.93025C0.179459 6.01018 0.198192 6.08901 0.234156 6.1604C0.27012 6.23178 0.322313 6.29375 0.38655 6.34132L6.50705 10.8856C6.58308 10.9421 6.67331 10.9763 6.76768 10.9845C6.86205 10.9927 6.95683 10.9745 7.04146 10.9319C7.12608 10.8894 7.19721 10.8241 7.2469 10.7435C7.2966 10.6629 7.3229 10.57 7.32287 10.4753V8.62952H15.3403C15.4075 8.62952 15.474 8.61629 15.536 8.59059C15.5981 8.56488 15.6545 8.5272 15.702 8.4797C15.7495 8.4322 15.7872 8.37581 15.8129 8.31375C15.8386 8.25168 15.8518 8.18516 15.8518 8.11799V3.77257C15.8519 3.7054 15.8387 3.63888 15.813 3.57681C15.7873 3.51475 15.7496 3.45836 15.7021 3.41089C15.6546 3.36342 15.5982 3.32579 15.5361 3.30017C15.474 3.27454 15.4074 3.26142 15.3403 3.26156H7.32023V1.41581C7.32022 1.3208 7.29378 1.22767 7.24386 1.14683C7.19394 1.06599 7.12251 1.00063 7.03757 0.958068Z" fill="#2DD775"/>
</svg>
