<svg id="Layer_1" data-name="Layer 1" xmlns="http://www.w3.org/2000/svg" viewBox="0 0 40 40"><defs><style>.cls-1{fill:#2dd775;}</style></defs><path class="cls-1" d="M20.67,36.62a1,1,0,0,0,1-.09l11.18-8.24a1,1,0,0,0,.2-1.39,1.89,1.89,0,0,0-.2-.2L21.71,18.4a1,1,0,0,0-1.38.21,1,1,0,0,0-.2.58v3.32H6.65a1,1,0,0,0-1,1h0v7.93a1,1,0,0,0,1,1H20.13v3.32A1,1,0,0,0,20.67,36.62Z"/><path class="cls-1" d="M18.24,3.38a.92.92,0,0,0-1,.08L6.1,11.7A.94.94,0,0,0,5.9,13a.9.9,0,0,0,.2.19l11.17,8.3a.93.93,0,0,0,1.49-.75V17.38H33.4a.93.93,0,0,0,.93-.93h0V8.51a.93.93,0,0,0-.93-.93H18.76V4.21A.92.92,0,0,0,18.24,3.38Z"/></svg>