<svg width="40" height="39" viewBox="0 0 40 39" fill="none" xmlns="http://www.w3.org/2000/svg">
<path d="M23.6957 17.2973L23.6614 18.8599L19.9082 20.2621L16.3866 18.7686L16.4224 17.1391L20.0981 15.4236L23.6957 17.2973ZM19.903 20.6017L16.3786 19.1309L16.2062 27.0413L19.73 28.5126L23.4811 27.1357L23.6535 19.2253L19.903 20.6017ZM21.2593 14.5709C21.2029 14.6357 21.1539 14.6937 21.1143 14.7481C21.4286 14.7025 21.7391 14.6341 22.0435 14.5434C22.4357 14.4315 22.8174 14.2854 23.1842 14.1068C23.3559 14.0247 23.5213 13.9299 23.6788 13.8231C23.8145 13.7356 23.9369 13.629 24.0422 13.5067C24.108 13.4348 24.1494 13.344 24.1603 13.2472C24.1587 13.142 24.129 13.0391 24.0744 12.9492C24.0575 12.9139 24.0346 12.8818 24.0069 12.8543C23.9913 12.8382 23.9716 12.8267 23.9499 12.8211C23.9299 12.815 23.9091 12.8122 23.8882 12.8127C23.8048 12.8135 23.7219 12.8268 23.6425 12.8522C23.4742 12.9049 23.3118 12.9747 23.1578 13.0605C22.9844 13.1526 22.8164 13.2545 22.6547 13.3658C22.3149 13.5948 21.9937 13.8502 21.6939 14.1295C21.5416 14.2686 21.3966 14.4154 21.2593 14.5693V14.5709ZM19.6704 11.8624C19.6574 12.0584 19.6557 12.2551 19.6651 12.4514C19.6804 12.8606 19.7279 13.2679 19.807 13.6696C19.8457 13.8715 19.8947 14.0712 19.9536 14.2682C19.9794 14.352 20.0037 14.4227 20.0279 14.486C20.1549 14.1951 20.2606 13.8955 20.3444 13.5894C20.4546 13.198 20.5305 12.7976 20.5711 12.3929C20.592 12.2038 20.5985 12.0134 20.5906 11.8233C20.5871 11.6622 20.5608 11.5025 20.5126 11.3487C20.4864 11.255 20.431 11.172 20.3544 11.1119C20.2639 11.0579 20.1607 11.0292 20.0554 11.0286C20.0459 11.0278 20.0364 11.0278 20.0269 11.0286C19.9974 11.0268 19.9678 11.0298 19.9394 11.0376C19.9175 11.0419 19.8973 11.0525 19.8813 11.0682C19.8502 11.0929 19.7885 11.1873 19.7458 11.3461C19.7038 11.5153 19.6785 11.6882 19.6704 11.8624ZM16.0728 12.7768C16.0144 12.8642 15.9805 12.9656 15.9747 13.0705C15.9813 13.1673 16.0182 13.2596 16.0802 13.3342C16.1802 13.4613 16.2979 13.5734 16.4298 13.667C16.5829 13.7806 16.7444 13.8825 16.9129 13.9718C17.2708 14.1662 17.6451 14.3288 18.0314 14.458C18.331 14.5605 18.6374 14.6417 18.9485 14.7011C18.9094 14.6442 18.8651 14.5846 18.8113 14.5171C18.6737 14.3436 18.5187 14.1811 18.4 14.0588C18.1118 13.7668 17.8013 13.4978 17.4713 13.254C17.315 13.1357 17.152 13.0265 16.983 12.9271C16.8331 12.8347 16.674 12.758 16.5084 12.6982C16.4305 12.6683 16.3485 12.6506 16.2653 12.6455C16.2416 12.6442 16.2178 12.647 16.1951 12.6539C16.1763 12.6585 16.1592 12.6682 16.1456 12.6819C16.115 12.7088 16.0895 12.741 16.0701 12.7768H16.0728ZM15.5386 18.7786L12.762 17.619L12.5896 25.5293L15.3666 26.6895L15.5386 18.7786ZM27.1668 17.9349L24.5084 18.911L24.3354 26.8214L26.9943 25.8447L27.1668 17.9349ZM14.8266 13.9059C14.7971 13.8568 14.7691 13.8083 14.7449 13.7582C14.6512 13.5686 14.5952 13.3627 14.5798 13.1517C14.5651 12.9461 14.5872 12.7395 14.6452 12.5416C14.671 12.4538 14.7027 12.3678 14.7401 12.2842C14.7591 12.2421 14.776 12.2062 14.7992 12.1619L14.8287 12.1092L14.8588 12.0564C14.9647 11.8772 15.1019 11.7184 15.2638 11.5876C15.5406 11.3712 15.8839 11.2576 16.2352 11.2659C16.3401 11.2685 16.4446 11.2805 16.5474 11.3018C16.7155 11.337 16.8789 11.3919 17.0341 11.4653C17.5742 11.7289 17.9475 12.0981 18.2592 12.4324C18.3242 12.5049 18.3879 12.579 18.4501 12.655L18.5329 12.626C18.4353 12.1898 18.3394 11.6741 18.4274 11.0755C18.4541 10.909 18.5001 10.7462 18.5645 10.5904C18.6441 10.3953 18.7609 10.2176 18.9084 10.0672C19.0797 9.8935 19.291 9.76441 19.5238 9.69123C19.7001 9.63761 19.8839 9.61286 20.068 9.61793L20.1434 9.62109L20.1904 9.62425L20.261 9.63164C20.3111 9.63691 20.3502 9.64377 20.3982 9.6522C20.4874 9.66843 20.5755 9.69063 20.6618 9.71865C20.8569 9.78114 21.0392 9.87833 21.1997 10.0055C21.3663 10.1372 21.5056 10.3 21.61 10.4849C21.7024 10.6474 21.7698 10.8228 21.8099 11.0054C21.8723 11.3001 21.8841 11.6033 21.8447 11.9019C21.8121 12.1562 21.7579 12.4072 21.6828 12.6523C21.6765 12.6734 21.6696 12.694 21.6628 12.7151L21.6965 12.7277C21.7645 12.6529 21.8331 12.578 21.9032 12.5063C22.2239 12.1925 22.6125 11.837 23.1689 11.5976C23.3243 11.5318 23.487 11.4849 23.6535 11.4579C23.7573 11.4413 23.8623 11.4338 23.9673 11.4357C24.0724 11.4377 24.177 11.4506 24.2795 11.4742C24.5174 11.5282 24.7384 11.64 24.9229 11.7996C25.0818 11.9369 25.2141 12.1022 25.3131 12.2874L25.3342 12.3275L25.3659 12.3929C25.388 12.4388 25.4033 12.4751 25.4186 12.5184C25.4521 12.6032 25.4798 12.6903 25.5014 12.7789C25.5512 12.9777 25.5646 13.1839 25.5409 13.3875C25.5109 13.6549 25.4159 13.9109 25.2641 14.1332L28.2252 15.3039L28.184 17.1702L24.5163 18.5413L24.5548 16.752L21.9707 15.4299C21.8257 15.4394 21.6712 15.4457 21.4961 15.45C21.378 15.4531 21.2604 15.4531 21.1433 15.45C21.0157 15.45 20.9013 15.4405 20.7837 15.4283L20.7309 15.4194C20.6882 15.411 20.6469 15.3968 20.608 15.3772C20.517 15.331 20.442 15.2584 20.3929 15.1689C20.3639 15.1992 20.3311 15.2256 20.2953 15.2475C20.2123 15.2995 20.1158 15.3259 20.0179 15.3234L19.972 15.3197C19.8779 15.3069 19.7885 15.2706 19.7121 15.2142C19.6883 15.1958 19.6662 15.1784 19.6467 15.1615C19.6082 15.2222 19.5572 15.2741 19.4971 15.3135C19.437 15.353 19.3691 15.3792 19.2981 15.3904H19.2807L19.238 15.3941C19.1272 15.4009 19.0123 15.4025 18.8868 15.3993C18.7612 15.3962 18.6515 15.3904 18.5355 15.3825C18.4195 15.3746 18.3067 15.3656 18.2033 15.3561L15.5876 16.5537L15.5475 18.41L11.7759 16.8105L11.8165 14.9442L14.8266 13.9059ZM20.6328 15.0233C20.6544 15.0667 20.6891 15.1021 20.732 15.1246C20.7497 15.134 20.7687 15.1408 20.7884 15.1446L20.8132 15.1478C20.9245 15.1599 21.032 15.1657 21.1496 15.1684C21.2672 15.171 21.3764 15.1684 21.4893 15.1684C21.7429 15.162 21.9523 15.151 22.1484 15.1341C22.5974 15.1014 23.0426 15.0294 23.479 14.9189C23.7101 14.857 23.9356 14.7755 24.1529 14.6753C24.3981 14.5654 24.6227 14.4143 24.8169 14.2286C24.9309 14.1186 25.0275 13.9918 25.1032 13.8526C25.1876 13.6982 25.2413 13.529 25.2614 13.3542C25.2808 13.1837 25.2697 13.011 25.2287 12.8443C25.2096 12.7681 25.1857 12.6933 25.157 12.6202C25.1423 12.5833 25.1296 12.5516 25.1106 12.5121L25.079 12.4472L25.0632 12.4177C24.9814 12.263 24.8723 12.1245 24.7409 12.009C24.5919 11.8798 24.4133 11.7892 24.221 11.7453C24.1367 11.726 24.0506 11.7154 23.9641 11.7136C23.8759 11.7122 23.7877 11.7183 23.7005 11.7321C23.5556 11.7565 23.4141 11.7974 23.2786 11.8539C22.7691 12.0733 22.4042 12.4076 22.102 12.704C21.7896 13.0255 21.502 13.3704 21.2419 13.7355C21.1175 13.9064 20.9972 14.0883 20.8728 14.2892C20.8248 14.3684 20.7626 14.4733 20.7067 14.5877C20.6785 14.644 20.6542 14.7022 20.6339 14.7618C20.6206 14.8015 20.6118 14.8425 20.6075 14.8841C20.6043 14.9315 20.6133 14.9789 20.6339 15.0217L20.6328 15.0233ZM19.5122 14.4459C19.5739 14.5677 19.625 14.6605 19.6783 14.7454C19.712 14.7985 19.7489 14.8496 19.7885 14.8983C19.8153 14.9314 19.8462 14.961 19.8803 14.9864C19.9175 15.0149 19.9615 15.0331 20.0079 15.0392H20.0253C20.0678 15.04 20.1097 15.0289 20.1461 15.007C20.1638 14.9958 20.18 14.9824 20.1941 14.9669L20.2099 14.949C20.3442 14.7689 20.4675 14.5808 20.579 14.3858C20.7082 14.1658 20.809 13.9818 20.8955 13.8057C21.1041 13.407 21.2776 12.991 21.4138 12.5622C21.4845 12.3346 21.5364 12.1016 21.5689 11.8655C21.604 11.599 21.5936 11.3285 21.5383 11.0655C21.5044 10.9106 21.4475 10.7617 21.3695 10.6236C21.2829 10.4709 21.1678 10.3363 21.0305 10.227C20.8956 10.1202 20.7427 10.0384 20.579 9.98549C20.5045 9.96138 20.4284 9.94235 20.3512 9.92854C20.3117 9.92116 20.2784 9.91535 20.2352 9.91061L20.1651 9.90375L20.1287 9.90059H20.0664C19.9126 9.89598 19.759 9.91664 19.6119 9.96176C19.4237 10.0208 19.253 10.1251 19.1146 10.2655C18.9918 10.3907 18.8946 10.5386 18.8287 10.7011C18.7729 10.8367 18.7331 10.9782 18.7101 11.123C18.6278 11.6704 18.7201 12.1571 18.8124 12.5706C18.9206 13.0055 19.0617 13.4316 19.2343 13.8452C19.3155 14.0403 19.4067 14.2386 19.5122 14.4459ZM14.8635 13.1275C14.8764 13.3025 14.9232 13.4734 15.0012 13.6306C15.0706 13.7723 15.1611 13.9026 15.2696 14.0171C15.4554 14.2109 15.673 14.3714 15.913 14.4918C16.1255 14.6016 16.3469 14.6933 16.5748 14.766C17.0067 14.8957 17.4491 14.9873 17.8969 15.0397C18.0915 15.0655 18.3009 15.085 18.554 15.1024C18.6663 15.1103 18.7792 15.1161 18.8926 15.1188C19.0059 15.1214 19.1183 15.1188 19.2216 15.1135L19.2522 15.1103C19.2729 15.108 19.293 15.1023 19.3118 15.0935C19.3521 15.0756 19.386 15.0457 19.4088 15.008C19.4319 14.9664 19.4441 14.9196 19.4442 14.872C19.4429 14.8268 19.436 14.782 19.4236 14.7386C19.4061 14.6778 19.3842 14.6184 19.3582 14.5608C19.3055 14.4427 19.2496 14.3351 19.2053 14.2544C19.0908 14.0477 18.9785 13.861 18.8614 13.6844C18.6181 13.3094 18.3468 12.9533 18.0498 12.6191C17.7587 12.308 17.4091 11.9578 16.9123 11.7184C16.7787 11.6546 16.638 11.607 16.4931 11.5765C16.4062 11.5588 16.318 11.5486 16.2294 11.5459C16.1426 11.5441 16.0558 11.5512 15.9705 11.567C15.7768 11.6024 15.5948 11.6848 15.4405 11.807C15.3047 11.9163 15.1899 12.0494 15.1019 12.1999L15.074 12.2479L15.0497 12.2937C15.0291 12.3322 15.0149 12.3633 14.997 12.3992C14.9648 12.471 14.9375 12.5448 14.9152 12.6202C14.8672 12.786 14.8494 12.9591 14.8625 13.1312L14.8635 13.1275Z" fill="#2DD775"/>
</svg>
