<svg id="Layer_1" data-name="Layer 1" xmlns="http://www.w3.org/2000/svg" viewBox="0 0 40 40"><defs><style>.cls-1{fill:#2dd775;}</style></defs><polygon class="cls-1" points="34.4 5.52 31.44 5.52 31.44 1.16 30.5 1.16 30.5 5.52 27.55 5.52 27.55 33.85 30.5 33.85 30.5 39.64 31.44 39.64 31.44 33.85 34.4 33.85 34.4 5.52"/><polygon class="cls-1" points="9.5 10.54 8.56 10.54 8.56 14.39 5.6 14.39 5.6 36.03 8.56 36.03 8.56 38.74 9.5 38.74 9.5 36.03 12.45 36.03 12.45 14.39 9.5 14.39 9.5 10.54"/><polygon class="cls-1" points="19.77 0.36 18.84 0.36 18.84 5.52 15.88 5.52 15.88 22.94 22.73 22.94 22.73 5.52 19.77 5.52 19.77 0.36"/></svg>