<?xml version="1.0" encoding="utf-8"?>
<!-- Generator: Adobe Illustrator 25.4.1, SVG Export Plug-In . SVG Version: 6.00 Build 0)  -->
<svg version="1.1" id="Layer_1" xmlns="http://www.w3.org/2000/svg" xmlns:xlink="http://www.w3.org/1999/xlink" x="0px" y="0px"
    viewBox="0 0 40 40" style="enable-background:new 0 0 40 40;" xml:space="preserve">
<style type="text/css">
	.st0{fill:none;stroke:#2DD775;stroke-width:0.25;stroke-miterlimit:10;}
</style>
    <g>
	<path class="st0" d="M19.86,1.1c0,0-7.6,8.25-7.6,18.43c0,6.39,1.47,13.42,3.52,17.77c1.31-0.68,2.67-1.25,4.07-1.71
		c1.4,0.46,2.76,1.04,4.07,1.71c2.05-4.35,3.52-11.39,3.52-17.77C27.46,9.35,19.86,1.1,19.86,1.1z M19.86,10.66
		c0.94,0,1.71,0.76,1.71,1.71s-0.76,1.71-1.71,1.71s-1.71-0.76-1.71-1.71c0,0,0,0,0,0C18.15,11.43,18.92,10.66,19.86,10.66
		C19.86,10.66,19.86,10.66,19.86,10.66L19.86,10.66z M19.86,22.19c-1.64,0-2.96-1.33-2.96-2.96c0-1.64,1.33-2.96,2.96-2.96
		c1.64,0,2.96,1.33,2.96,2.96c0,0,0,0,0,0C22.82,20.86,21.5,22.18,19.86,22.19L19.86,22.19z"/>
        <path class="st0" d="M10.44,27.34c-2.18,1.11-4.09,2.69-5.59,4.63v6.72c2.57-1.85,5.58-2.32,7.91-1.67
		C11.03,33.8,10.68,30.73,10.44,27.34z"/>
        <path class="st0" d="M35.14,32.35c-1.41-1.96-3.36-3.71-5.86-5c-0.24,3.38-0.59,6.46-2.32,9.68c2.42-0.67,5.56-0.15,8.18,1.87
		V32.35z"/>
</g>
</svg>