<svg width="40" height="39" viewBox="0 0 40 39" fill="none" xmlns="http://www.w3.org/2000/svg">
<path d="M19.8371 6.75017C19.8371 6.75017 15.2738 11.7073 15.2738 17.8247C15.2738 21.6628 16.1582 25.8874 17.3896 28.5031C18.1767 28.0952 18.9951 27.7508 19.8371 27.4732C20.679 27.7508 21.4974 28.0952 22.2845 28.5031C23.5159 25.8874 24.3997 21.6628 24.3997 17.8247C24.3997 11.7073 19.8371 6.75017 19.8371 6.75017ZM19.8371 12.4947C20.04 12.4947 20.2385 12.5549 20.4073 12.6677C20.576 12.7804 20.7076 12.9407 20.7852 13.1283C20.8629 13.3158 20.8832 13.5222 20.8435 13.7213C20.8039 13.9204 20.7061 14.1032 20.5625 14.2467C20.4189 14.3902 20.236 14.4879 20.0369 14.5275C19.8378 14.567 19.6315 14.5466 19.444 14.4689C19.2565 14.3911 19.0962 14.2595 18.9835 14.0907C18.8708 13.9218 18.8107 13.7234 18.8108 13.5204C18.8105 13.3855 18.8369 13.2518 18.8883 13.1271C18.9398 13.0024 19.0153 12.889 19.1107 12.7935C19.206 12.6981 19.3192 12.6223 19.4439 12.5707C19.5685 12.519 19.7021 12.4925 19.8371 12.4926V12.4947ZM19.8371 19.4204C19.4851 19.4205 19.141 19.3163 18.8483 19.1208C18.5556 18.9253 18.3275 18.6474 18.1928 18.3223C18.058 17.9971 18.0227 17.6393 18.0914 17.2941C18.16 16.9489 18.3295 16.6319 18.5784 16.383C18.8272 16.1341 19.1443 15.9646 19.4895 15.896C19.8347 15.8274 20.1925 15.8626 20.5177 15.9974C20.8428 16.1321 21.1207 16.3603 21.3162 16.6529C21.5116 16.9456 21.6159 17.2897 21.6158 17.6417C21.6151 18.113 21.4274 18.5648 21.0939 18.8979C20.7604 19.231 20.3084 19.4182 19.8371 19.4183V19.4204Z" fill="#2DD775"/>
<path d="M14.1769 22.5181C12.865 23.1854 11.7182 24.1366 10.8198 25.3026V29.34C12.3612 28.2262 14.1701 27.9452 15.5734 28.3349C14.5297 26.3995 14.3193 24.5511 14.1769 22.5181Z" fill="#2DD775"/>
<path d="M29.0173 25.5241C28.1693 24.3444 26.9996 23.2933 25.4972 22.5181C25.3542 24.5511 25.1444 26.3995 24.1007 28.3349C25.5536 27.9314 27.4415 28.2457 29.0173 29.4608V25.5241Z" fill="#2DD775"/>
</svg>
