<svg width="25" height="25" viewBox="0 0 25 25" fill="none" xmlns="http://www.w3.org/2000/svg">
<path d="M5.345 24.1338V8.44875C5.3454 8.31829 5.39755 8.19331 5.49 8.10125L10.16 3.43C10.2528 3.33793 10.378 3.28588 10.5088 3.285H22.1575C22.2223 3.285 22.2864 3.29778 22.3463 3.32261C22.4061 3.34744 22.4604 3.38383 22.5062 3.4297C22.5519 3.47556 22.5882 3.53 22.6129 3.5899C22.6375 3.6498 22.6502 3.71397 22.65 3.77875V24.1338C22.6502 24.1985 22.6375 24.2626 22.6128 24.3224C22.5882 24.3822 22.5519 24.4366 22.5061 24.4824C22.4604 24.5281 22.406 24.5644 22.3462 24.5891C22.2863 24.6138 22.2222 24.6264 22.1575 24.6263H5.83875C5.77397 24.6264 5.70979 24.6138 5.6499 24.5891C5.59 24.5644 5.53556 24.5282 5.48969 24.4824C5.44383 24.4367 5.40744 24.3823 5.38261 24.3225C5.35778 24.2627 5.345 24.1985 5.345 24.1338ZM21.6638 4.27125H10.7138L6.33125 8.65375V23.64H21.6638V4.27125Z" fill="#979697"/>
<path d="M2.84249 21.715H4.86124C4.98773 21.7086 5.10694 21.6539 5.19421 21.5621C5.28149 21.4703 5.33016 21.3485 5.33016 21.2219C5.33016 21.0952 5.28149 20.9734 5.19421 20.8816C5.10694 20.7899 4.98773 20.7351 4.86124 20.7288H3.33624V5.74125L7.71749 1.36625H18.6687V2.8275C18.6687 2.95812 18.7206 3.08339 18.813 3.17575C18.9054 3.26811 19.0306 3.32 19.1612 3.32C19.2919 3.32 19.4171 3.26811 19.5095 3.17575C19.6019 3.08339 19.6537 2.95812 19.6537 2.8275V0.866252C19.6537 0.801635 19.641 0.737653 19.6162 0.67797C19.5915 0.618287 19.5552 0.564077 19.5094 0.518443C19.4637 0.47281 19.4094 0.436651 19.3496 0.412037C19.2899 0.387423 19.2259 0.374838 19.1612 0.375002H7.51374C7.44901 0.374803 7.38487 0.3874 7.32502 0.412069C7.26517 0.436739 7.21078 0.472995 7.16499 0.518752L2.49999 5.18875C2.45316 5.23407 2.41579 5.28823 2.39004 5.34809C2.36429 5.40796 2.35068 5.47234 2.34999 5.5375V21.2213C2.34983 21.286 2.36245 21.3502 2.38712 21.4101C2.4118 21.47 2.44805 21.5244 2.4938 21.5703C2.53955 21.6162 2.5939 21.6526 2.65373 21.6774C2.71357 21.7022 2.77771 21.715 2.84249 21.715Z" fill="#979697"/>
<path d="M5.3825 8.6375C5.34525 8.54753 5.33558 8.44852 5.35472 8.35304C5.37386 8.25756 5.42095 8.16992 5.49 8.10125L10.16 3.43C10.2292 3.36196 10.3169 3.3158 10.4121 3.2973C10.5074 3.2788 10.606 3.28877 10.6956 3.32598C10.7852 3.36319 10.8619 3.42598 10.916 3.5065C10.9702 3.58703 10.9994 3.68172 11 3.77875V8.44875C11 8.58136 10.9473 8.70854 10.8536 8.80231C10.7598 8.89608 10.6326 8.94875 10.5 8.94875H5.83875C5.7403 8.94842 5.64421 8.91858 5.56289 8.8631C5.48156 8.80762 5.41873 8.72904 5.3825 8.6375ZM10.0162 4.96875L7.02875 7.95625H10.0162V4.96875Z" fill="#979697"/>
<path d="M8.92375 21.0512H19.0725C19.199 21.0449 19.3182 20.9901 19.4055 20.8984C19.4927 20.8066 19.5414 20.6848 19.5414 20.5581C19.5414 20.4315 19.4927 20.3097 19.4055 20.2179C19.3182 20.1261 19.199 20.0714 19.0725 20.065H8.92375C8.85691 20.0616 8.79007 20.0719 8.72731 20.0951C8.66455 20.1184 8.60718 20.1542 8.55868 20.2003C8.51017 20.2464 8.47155 20.3019 8.44516 20.3634C8.41877 20.4249 8.40517 20.4912 8.40517 20.5581C8.40517 20.625 8.41877 20.6913 8.44516 20.7528C8.47155 20.8143 8.51017 20.8698 8.55868 20.9159C8.60718 20.962 8.66455 20.9978 8.72731 21.0211C8.79007 21.0443 8.85691 21.0546 8.92375 21.0512Z" fill="#979697"/>
<path d="M8.92375 17.875H19.0725C19.199 17.8686 19.3182 17.8139 19.4055 17.7221C19.4927 17.6303 19.5414 17.5085 19.5414 17.3819C19.5414 17.2552 19.4927 17.1334 19.4055 17.0416C19.3182 16.9499 19.199 16.8951 19.0725 16.8887H8.92375C8.85691 16.8854 8.79007 16.8956 8.72731 16.9189C8.66455 16.9422 8.60718 16.9779 8.55868 17.0241C8.51017 17.0702 8.47155 17.1257 8.44516 17.1872C8.41877 17.2487 8.40517 17.3149 8.40517 17.3819C8.40517 17.4488 8.41877 17.515 8.44516 17.5765C8.47155 17.6381 8.51017 17.6936 8.55868 17.7397C8.60718 17.7858 8.66455 17.8216 8.72731 17.8448C8.79007 17.8681 8.85691 17.8784 8.92375 17.875Z" fill="#979697"/>
<path d="M8.92375 14.7087H19.0725C19.199 14.7024 19.3182 14.6476 19.4055 14.5559C19.4927 14.4641 19.5414 14.3423 19.5414 14.2156C19.5414 14.089 19.4927 13.9672 19.4055 13.8754C19.3182 13.7836 19.199 13.7289 19.0725 13.7225H8.92375C8.85691 13.7191 8.79007 13.7294 8.72731 13.7526C8.66455 13.7759 8.60718 13.8117 8.55868 13.8578C8.51017 13.9039 8.47155 13.9594 8.44516 14.0209C8.41877 14.0824 8.40517 14.1487 8.40517 14.2156C8.40517 14.2825 8.41877 14.3488 8.44516 14.4103C8.47155 14.4718 8.51017 14.5273 8.55868 14.5734C8.60718 14.6195 8.66455 14.6553 8.72731 14.6786C8.79007 14.7018 8.85691 14.7121 8.92375 14.7087Z" fill="#979697"/>
<path d="M8.92375 11.5375H19.0725C19.199 11.5311 19.3182 11.4764 19.4055 11.3846C19.4927 11.2928 19.5414 11.171 19.5414 11.0444C19.5414 10.9177 19.4927 10.7959 19.4055 10.7041C19.3182 10.6124 19.199 10.5576 19.0725 10.5513H8.92375C8.85691 10.5479 8.79007 10.5581 8.72731 10.5814C8.66455 10.6047 8.60718 10.6404 8.55868 10.6866C8.51017 10.7327 8.47155 10.7882 8.44516 10.8497C8.41877 10.9112 8.40517 10.9774 8.40517 11.0444C8.40517 11.1113 8.41877 11.1775 8.44516 11.2391C8.47155 11.3006 8.51017 11.3561 8.55868 11.4022C8.60718 11.4483 8.66455 11.4841 8.72731 11.5073C8.79007 11.5306 8.85691 11.5409 8.92375 11.5375Z" fill="#979697"/>
<path d="M12.4125 8.36624H19.0725C19.199 8.35987 19.3182 8.30513 19.4055 8.21335C19.4928 8.12157 19.5414 7.99977 19.5414 7.87311C19.5414 7.74646 19.4928 7.62465 19.4055 7.53287C19.3182 7.44109 19.199 7.38636 19.0725 7.37999H12.4125C12.3457 7.37662 12.2788 7.38688 12.2161 7.41014C12.1533 7.43341 12.0959 7.46918 12.0474 7.51531C11.9989 7.56143 11.9603 7.61693 11.9339 7.67844C11.9075 7.73995 11.8939 7.80618 11.8939 7.87311C11.8939 7.94005 11.9075 8.00628 11.9339 8.06779C11.9603 8.1293 11.9989 8.1848 12.0474 8.23092C12.0959 8.27704 12.1533 8.31282 12.2161 8.33608C12.2788 8.35935 12.3457 8.36961 12.4125 8.36624Z" fill="#979697"/>
</svg>
