<svg width="25" height="25" viewBox="0 0 25 25" fill="none" xmlns="http://www.w3.org/2000/svg">
<path fill-rule="evenodd" clip-rule="evenodd" d="M19.6875 12.295C19.3125 12.295 19.0725 12.545 19.0725 12.9375V21.8625H14.6713V18.25C14.6713 17.9287 14.4213 17.6075 14.1175 17.6075H10.9388C10.7663 17.61 10.6012 17.6776 10.4764 17.7968C10.3517 17.9159 10.2766 18.0778 10.2663 18.25V21.875H5.92251V13.2587C5.92483 13.1764 5.91084 13.0943 5.88133 13.0174C5.85183 12.9404 5.80739 12.87 5.75057 12.8103C5.69376 12.7506 5.6257 12.7027 5.5503 12.6694C5.4749 12.6361 5.39366 12.618 5.31126 12.6162C4.94376 12.6162 4.70126 12.86 4.70126 13.2587V22.5875C4.6972 22.754 4.75899 22.9154 4.87319 23.0366C4.9874 23.1578 5.14481 23.2291 5.31126 23.235H10.9363C11.2425 23.235 11.485 22.9087 11.485 22.5875V18.8912H13.4425V22.5875C13.4534 22.7599 13.5285 22.9221 13.6529 23.0419C13.7774 23.1618 13.9423 23.2307 14.115 23.235H19.6875C19.9938 23.235 20.2988 22.9087 20.2988 22.5875V12.9375C20.3011 12.8551 20.2871 12.7731 20.2576 12.6961C20.2281 12.6191 20.1836 12.5488 20.1268 12.4891C20.07 12.4293 20.0019 12.3815 19.9265 12.3481C19.8512 12.3148 19.7699 12.2968 19.6875 12.295ZM23.0475 12.7775C19.01 8.43375 16.5 5.7825 12.8963 2C12.858 1.93415 12.8049 1.87823 12.741 1.83675C12.6772 1.79527 12.6045 1.76941 12.5288 1.76125C12.4346 1.76052 12.3415 1.78171 12.2569 1.82315C12.1722 1.86458 12.0984 1.92513 12.0413 2L1.94626 12.6987C1.83553 12.8358 1.77235 13.0052 1.76626 13.1812C1.7621 13.2571 1.77629 13.3328 1.80762 13.402C1.83896 13.4712 1.88651 13.5318 1.94626 13.5787C2.19626 13.9 2.55751 13.9 2.80626 13.5787L12.5288 3.375L22.1938 13.75C22.2522 13.8022 22.3204 13.8424 22.3944 13.8681C22.4684 13.8939 22.5468 13.9047 22.625 13.9C22.78 13.8946 22.9289 13.8384 23.0488 13.74C23.1688 13.6085 23.2354 13.4368 23.2354 13.2587C23.2354 13.0807 23.1688 12.909 23.0488 12.7775H23.0475Z" fill="#979697"/>
</svg>
