<svg width="25" height="25" viewBox="0 0 25 25" fill="none" xmlns="http://www.w3.org/2000/svg">
<path d="M23.125 20.25H1.86125C1.80622 20.25 1.75344 20.2281 1.71453 20.1892C1.67561 20.1503 1.65375 20.0975 1.65375 20.0425V7.58875C1.65291 7.56098 1.65766 7.53332 1.66771 7.50742C1.67777 7.48152 1.69292 7.4579 1.71227 7.43797C1.73162 7.41803 1.75478 7.40219 1.78037 7.39137C1.80596 7.38055 1.83347 7.37499 1.86125 7.375H23.125C23.1524 7.375 23.1794 7.38041 23.2047 7.39091C23.23 7.40142 23.2529 7.41682 23.2722 7.43622C23.2915 7.45562 23.3067 7.47864 23.3171 7.50396C23.3274 7.52928 23.3327 7.5564 23.3325 7.58375V20.035C23.3335 20.0629 23.3289 20.0907 23.3189 20.1167C23.3089 20.1428 23.2938 20.1665 23.2744 20.1866C23.2551 20.2067 23.2319 20.2226 23.2062 20.2335C23.1805 20.2444 23.1529 20.25 23.125 20.25ZM2.07 19.8312H22.915V7.79625H2.07V19.8312Z" fill="#979697"/>
<path d="M23.1913 6.96H1.80875C1.78279 6.95858 1.75738 6.95198 1.734 6.9406C1.71063 6.92921 1.68977 6.91327 1.67265 6.8937C1.65553 6.87413 1.64249 6.85134 1.63431 6.82666C1.62613 6.80198 1.62296 6.77592 1.625 6.75V4.96C1.62296 4.93408 1.62613 4.90802 1.63431 4.88334C1.64249 4.85866 1.65553 4.83587 1.67265 4.8163C1.68977 4.79673 1.71063 4.78079 1.734 4.7694C1.75738 4.75802 1.78279 4.75142 1.80875 4.75H23.1913C23.2172 4.75142 23.2426 4.75802 23.266 4.7694C23.2894 4.78079 23.3102 4.79673 23.3274 4.8163C23.3445 4.83587 23.3575 4.85866 23.3657 4.88334C23.3739 4.90802 23.377 4.93408 23.375 4.96V6.75C23.377 6.77592 23.3739 6.80198 23.3657 6.82666C23.3575 6.85134 23.3445 6.87413 23.3274 6.8937C23.3102 6.91327 23.2894 6.92921 23.266 6.9406C23.2426 6.95198 23.2172 6.95858 23.1913 6.96ZM1.9875 6.54375H23.0125V5.16875H1.9875V6.54375Z" fill="#979697"/>
<path d="M17.8512 13.5075L18.765 12.685L18.8575 10.3563L16.5325 10.2025L15.6187 11.025L17.9438 11.1788L17.8512 13.5075Z" fill="#979697"/>
<path d="M6.44875 17.425C6.38377 17.425 6.32032 17.4053 6.26676 17.3685C6.21321 17.3317 6.17207 17.2796 6.14879 17.2189C6.1255 17.1582 6.12115 17.0919 6.13632 17.0288C6.15149 16.9656 6.18546 16.9085 6.23375 16.865L8.6875 14.6563L12.0625 15.63L17.5625 11.1538C17.6288 11.1001 17.7137 11.0749 17.7986 11.0838C17.8834 11.0927 17.9613 11.135 18.015 11.2013C18.0687 11.2676 18.0939 11.3525 18.085 11.4373C18.0761 11.5222 18.0338 11.6001 17.9675 11.6538L12.2075 16.3413L8.85125 15.375L6.66375 17.345C6.60431 17.3971 6.5278 17.4256 6.44875 17.425Z" fill="#979697"/>
</svg>
