<svg width="25" height="25" viewBox="0 0 25 25" fill="none" xmlns="http://www.w3.org/2000/svg">
<path fill-rule="evenodd" clip-rule="evenodd" d="M1.855 4.55625V21.2613H1.18V22.2288H1.855V22.9325H2.8225V22.2288H21.33L21.0475 22.9325L23.82 21.745L21.0788 20.62L21.3288 21.2588H2.8225V4.55625L3.52625 4.83875L2.33875 2.0675L1.21375 4.8075L1.8525 4.5575L1.855 4.55625ZM13.7063 7.05625C12.4462 11.2413 7.875 12.335 3.94625 12.4075V13.5C8.315 13.4088 13.515 11.945 14.8663 7.3925L16.2412 7.72875L15.1362 3.74L12.4375 6.69625L13.7063 7.0625V7.05625ZM6.5275 20.3525H4.4675C4.33691 20.3583 4.20923 20.3128 4.1118 20.2257C4.01437 20.1385 3.95494 20.0167 3.94625 19.8863V15.5625C3.95494 15.4321 4.01437 15.3102 4.1118 15.2231C4.20923 15.1359 4.33691 15.0904 4.4675 15.0963H6.5275C6.65809 15.0904 6.78577 15.1359 6.8832 15.2231C6.98063 15.3102 7.04006 15.4321 7.04875 15.5625V19.8863C7.04006 20.0167 6.98063 20.1385 6.8832 20.2257C6.78577 20.3128 6.65809 20.3583 6.5275 20.3525ZM15.885 20.3525H13.825C13.6944 20.3583 13.5667 20.3128 13.4693 20.2257C13.3719 20.1385 13.3124 20.0167 13.3038 19.8863V11.7363C13.3124 11.6058 13.3719 11.484 13.4693 11.3968C13.5667 11.3097 13.6944 11.2642 13.825 11.27H15.885C16.0156 11.2642 16.1433 11.3097 16.2407 11.3968C16.3381 11.484 16.3976 11.6058 16.4062 11.7363V19.8863C16.3976 20.0167 16.3381 20.1385 16.2407 20.2257C16.1433 20.3128 16.0156 20.3583 15.885 20.3525ZM11.2063 20.3525H9.14625C9.01566 20.3583 8.88798 20.3128 8.79055 20.2257C8.69312 20.1385 8.63369 20.0167 8.625 19.8863V13.7975C8.63338 13.6669 8.69267 13.5447 8.79013 13.4573C8.8876 13.3699 9.01546 13.3242 9.14625 13.33H11.2063C11.337 13.3242 11.4649 13.3699 11.5624 13.4573C11.6598 13.5447 11.7191 13.6669 11.7275 13.7975V19.8863C11.7188 20.0167 11.6594 20.1385 11.562 20.2257C11.4645 20.3128 11.3368 20.3583 11.2063 20.3525Z" fill="#979697"/>
</svg>
