<svg width="25" height="25" viewBox="0 0 25 25" fill="none" xmlns="http://www.w3.org/2000/svg">
<path d="M22.0837 12.2825H21.6475V9.23376C21.6472 8.65636 21.4176 8.10269 21.0094 7.6944C20.6011 7.28611 20.0474 7.05659 19.47 7.05626H17.8975L17.18 4.82001C17.1056 4.60374 16.9494 4.42521 16.745 4.32265C16.5406 4.22008 16.3041 4.20164 16.0863 4.27126L14.3825 4.81876L11.9813 2.50626C11.8097 2.35141 11.5874 2.26471 11.3563 2.26251C11.2426 2.26449 11.1305 2.28905 11.0264 2.33476C10.9223 2.38047 10.8284 2.44641 10.75 2.52876L6.4075 7.05626H3.7825C3.20596 7.05792 2.65358 7.28802 2.24637 7.69617C1.83916 8.10431 1.61033 8.65722 1.61 9.23376V20.56C1.61033 21.1374 1.83985 21.6911 2.24814 22.0994C2.65643 22.5077 3.21009 22.7372 3.7875 22.7375H19.47C20.0474 22.7372 20.6011 22.5077 21.0094 22.0994C21.4176 21.6911 21.6472 21.1374 21.6475 20.56V17.51H22.0837C22.4301 17.5097 22.7621 17.372 23.007 17.1271C23.2519 16.8822 23.3897 16.5501 23.39 16.2038V13.59C23.3897 13.2436 23.252 12.9114 23.0071 12.6663C22.7623 12.4212 22.4302 12.2832 22.0837 12.2825ZM16.3538 5.09751L16.9788 7.05626H10.27L10.7363 6.90501L14.4025 5.72751L16.3538 5.09751ZM11.375 3.13501L13.4413 5.12501L8.42125 6.73501L7.7 6.96626L11.375 3.13501ZM20.7725 20.56C20.7722 20.9063 20.6344 21.2384 20.3895 21.4833C20.1446 21.7282 19.8126 21.8659 19.4662 21.8663H3.7875C3.44116 21.8659 3.10911 21.7282 2.86421 21.4833C2.61931 21.2384 2.48158 20.9063 2.48125 20.56V9.23376C2.48158 8.88743 2.61931 8.55537 2.86421 8.31047C3.10911 8.06557 3.44116 7.92784 3.7875 7.92751H19.47C19.8163 7.92784 20.1484 8.06557 20.3933 8.31047C20.6382 8.55537 20.7759 8.88743 20.7763 9.23376V12.2825H15.985C15.6383 12.2828 15.306 12.4207 15.0608 12.6658C14.8157 12.911 14.6778 13.2433 14.6775 13.59V16.2038C14.6782 16.5502 14.8162 16.8823 15.0613 17.1271C15.3064 17.372 15.6385 17.5097 15.985 17.51H20.7763L20.7725 20.56ZM22.515 16.2038C22.515 16.3191 22.4692 16.4298 22.3876 16.5114C22.306 16.5929 22.1954 16.6388 22.08 16.6388H15.985C15.8695 16.6388 15.7587 16.593 15.677 16.5114C15.5952 16.4299 15.5491 16.3192 15.5488 16.2038V13.59C15.5491 13.4744 15.5951 13.3636 15.6769 13.2819C15.7586 13.2002 15.8694 13.1541 15.985 13.1538H22.0837C22.1992 13.1541 22.3099 13.2002 22.3914 13.282C22.473 13.3638 22.5187 13.4745 22.5187 13.59L22.515 16.2038ZM17.2913 14.025C17.1182 14.025 16.949 14.0763 16.8051 14.1725C16.6612 14.2686 16.5491 14.4053 16.4829 14.5652C16.4166 14.725 16.3993 14.901 16.4331 15.0707C16.4668 15.2404 16.5502 15.3964 16.6725 15.5187C16.7949 15.6411 16.9508 15.7244 17.1205 15.7582C17.2903 15.792 17.4662 15.7746 17.6261 15.7084C17.786 15.6422 17.9226 15.53 18.0188 15.3861C18.1149 15.2422 18.1663 15.0731 18.1663 14.9C18.1663 14.6679 18.0741 14.4454 17.91 14.2813C17.7459 14.1172 17.5233 14.025 17.2913 14.025Z" fill="#979697"/>
</svg>
